<svg width="448" height="95" viewBox="0 0 448 95" fill="none" xmlns="http://www.w3.org/2000/svg">
<g clip-path="url(#clip0_17_40)">
<rect width="448" height="95" fill="white"/>
<path d="M33.5069 92.3104L37.9523 95L42.4055 92.3097C61.5911 80.6899 73.7035 61.355 75.6382 39.758H69.7362C67.8186 59.3559 56.7479 76.8758 39.3017 87.4435L37.9536 88.2563L36.6107 87.4441C17.3673 75.7842 5.87897 55.6687 5.87897 33.6351V5.73233H70.0374V10.738H75.9144V0H0V33.6351C0 57.656 12.5254 79.591 33.5069 92.3111V92.3104Z" fill="#C10016"/>
<path d="M54.0923 47.8906V47.2344L50.1461 47.2291V47.888C50.1474 50.8939 47.7577 56.5796 38.7038 56.5835H38.7011C35.784 56.5835 33.0444 54.9665 30.9855 52.0303C28.9982 49.196 27.8579 45.4135 27.8566 41.6539C27.8559 39.0821 28.532 35.145 30.4324 31.8096C31.8384 29.3423 34.4123 26.4015 38.6932 26.3995H38.6985C42.9525 26.3995 46.2886 28.3289 48.6145 32.1345C50.3868 35.0345 50.8813 37.9911 50.8859 38.0207L50.9753 38.5737L53.9483 38.5724L53.9424 23.8585L50.9687 23.8618L50.8767 24.4103C50.874 24.4247 50.6485 25.7117 49.7035 26.8066C46.4957 23.852 42.5264 22.2329 38.4572 22.2329H38.4513C33.2384 22.2349 28.3327 24.2584 24.6383 27.9304C20.9426 31.6031 18.9079 36.4779 18.9099 41.6572C18.9139 52.365 27.6817 61.073 38.4585 61.0723H38.4657C44.2717 61.0697 54.0976 58.2913 54.0937 47.8906H54.0923Z" fill="#C10016"/>
<path d="M72.9934 13.0771C72.756 16.4177 71.5289 19.3217 69.1287 21.6779C66.7337 24.0295 63.829 25.2362 60.7363 25.3657C61.3959 25.4723 62.3198 25.5518 63.2037 25.7833C64.0888 26.0148 64.968 26.3272 65.7867 26.7322C66.6048 27.1373 67.3906 27.643 68.1061 28.2105C68.815 28.7728 69.4792 29.4179 70.0513 30.1182C70.6287 30.8258 71.137 31.611 71.5506 32.4251C71.9642 33.2392 72.2852 34.1145 72.5324 34.995C72.7764 35.8631 72.8763 36.7712 73.0164 37.534C73.3307 31.4163 78.389 25.6544 85.4668 25.3835C78.3608 25.1671 73.2078 19.3434 72.9927 13.0764L72.9934 13.0771Z" fill="#C10016"/>
<path d="M403.426 74.5802C403.426 73.9929 403.259 73.5734 402.755 73.4057C402.503 73.3215 402.084 73.238 401.497 73.238H399.987V77.7682H400.741V76.0065H401.329C401.748 76.0065 402 76.0907 402.168 76.1742C402.419 76.3419 402.587 76.6773 402.587 77.181V77.8524H403.342V76.8456C403.342 76.6779 403.259 76.4261 403.09 76.1742C402.923 75.9223 402.672 75.8388 402.336 75.7547C402.671 75.6705 402.839 75.587 403.007 75.5028C403.259 75.2509 403.426 74.9997 403.426 74.5802ZM402.252 75.2509C402.084 75.3351 401.832 75.3351 401.497 75.3351H400.741V73.7411H401.413C401.832 73.7411 402.168 73.8246 402.336 73.9088C402.505 73.9923 402.672 74.2441 402.756 74.5802C402.756 74.9156 402.587 75.1668 402.252 75.2509Z" fill="#2D2926"/>
<path d="M404.434 72.5665C403.595 71.8116 402.672 71.392 401.498 71.392C400.407 71.392 399.4 71.8116 398.645 72.5665C397.889 73.3214 397.47 74.3282 397.47 75.4192C397.47 76.5937 397.889 77.5163 398.645 78.3554C399.4 79.1103 400.323 79.5299 401.498 79.5299C402.672 79.5299 403.595 79.1945 404.434 78.3554C405.272 77.5163 405.692 76.5937 405.608 75.4192C405.608 74.3282 405.272 73.3221 404.434 72.5665ZM404.098 78.0194C403.426 78.6908 402.587 79.0261 401.58 79.0261C400.574 79.0261 399.735 78.6908 399.064 78.0194C398.392 77.3479 398.057 76.5095 398.057 75.5027C398.057 74.4959 398.392 73.6568 399.064 72.9861C399.735 72.3146 400.574 71.8951 401.58 71.9793C402.587 71.9793 403.426 72.3146 404.098 72.9861C404.769 73.741 405.105 74.4959 405.105 75.5027C405.105 76.5095 404.769 77.3486 404.098 78.0194Z" fill="#2D2926"/>
<path d="M170.192 82.2628C170.192 85.6633 168.425 87.3764 165.552 87.3764C162.652 87.3764 160.886 85.5574 160.886 82.1307V71.6393H157.643V82.2622C157.643 87.6131 160.701 90.3809 165.498 90.3809C170.323 90.3809 173.432 87.6131 173.432 82.1043V71.6393H170.19V82.2622L170.192 82.2628Z" fill="#2D2926"/>
<path d="M197.899 84.398L188.014 71.6399H185.009V90.0922H188.199V76.9645L198.373 90.0922H201.089V71.6399H197.899V84.398Z" fill="#2D2926"/>
<path d="M216.908 71.6399H213.666V90.0922H216.908V71.6399Z" fill="#2D2926"/>
<path d="M237.049 85.8218L231.487 71.6399H227.902L235.547 90.2238H238.446L246.091 71.6399H242.585L237.049 85.8218Z" fill="#2D2926"/>
<path d="M260.144 82.2628H269.396V79.3371H260.144V74.5393H270.583V71.6399H256.902V90.0922H270.715V87.1929H260.144V82.2628Z" fill="#2D2926"/>
<path d="M297.288 77.5182V77.4656C297.288 75.8578 296.735 74.4873 295.759 73.4851C294.573 72.3251 292.755 71.6399 290.435 71.6399H282.21V90.0922H285.453V83.6602H289.512L294.046 90.0922H297.895L292.913 83.1065C295.471 82.3687 297.288 80.5498 297.288 77.5182ZM285.453 80.7865V74.5919H290.171C292.57 74.5919 293.993 75.673 293.993 77.6497V77.7023C293.993 79.5739 292.517 80.7858 290.197 80.7858L285.453 80.7865Z" fill="#2D2926"/>
<path d="M316.06 79.3898C312.502 78.5461 311.658 77.9135 311.658 76.4905V76.4372C311.658 75.2246 312.766 74.25 314.663 74.25C316.35 74.25 318.011 74.9089 319.671 76.1478L321.411 73.6963C319.54 72.1937 317.405 71.3763 314.716 71.3763C311.052 71.3763 308.416 73.5641 308.416 76.7279V76.7805C308.416 80.1809 310.63 81.3409 314.558 82.2899C317.985 83.0803 318.723 83.7925 318.723 85.1103V85.1629C318.723 86.5334 317.457 87.4823 315.454 87.4823C313.187 87.4823 311.395 86.6129 309.628 85.084L307.678 87.4034C309.892 89.3801 312.555 90.3554 315.375 90.3554C319.25 90.3554 321.965 88.2997 321.965 84.846V84.7934C321.965 81.7362 319.962 80.3388 316.06 79.3898Z" fill="#2D2926"/>
<path d="M336.862 71.6399H333.62V90.0922H336.862V71.6399Z" fill="#2D2926"/>
<path d="M348.067 74.6445H353.945V90.0922H357.188V74.6445H363.065V71.6399H348.067V74.6445Z" fill="#2D2926"/>
<path d="M381.178 79.785L376.038 71.6399H372.189L379.517 82.8165V90.0922H382.786V82.7376L390.114 71.6399H386.397L381.178 79.785Z" fill="#2D2926"/>
<path d="M199.993 47.8985C199.097 47.6519 198.308 47.2081 197.623 46.5675C196.935 45.927 196.29 45.009 195.689 43.8082C195.084 42.6101 194.349 40.9582 193.475 38.8493L178.56 2.65016L173.946 2.65213L157.566 43.5123C157.191 44.3804 156.795 45.1142 156.382 45.7153C155.967 46.313 155.478 46.8003 154.917 47.1712C154.356 47.5447 153.712 47.8354 152.984 48.0399C152.259 48.2497 151.396 48.4141 150.399 48.5377V51.0175L167.48 51.011V48.5311C165.609 48.5318 164.206 48.3687 163.27 48.036C162.336 47.7059 161.867 46.9213 161.866 45.6804C161.866 43.9878 162.841 40.9503 164.795 36.5674L182.438 36.5608L183.873 40.2789C184.371 41.6033 184.767 42.7179 185.059 43.6261C185.348 44.5369 185.495 45.2806 185.496 45.8586C185.496 46.8503 185.061 47.5138 184.188 47.8446C183.315 48.1754 181.88 48.3825 179.886 48.4641V51.007L203.453 50.9985V48.4555C202.039 48.3325 200.884 48.1484 199.991 47.8992L199.993 47.8985ZM166.228 32.846L173.639 14.0596H173.89L181.066 32.8401L166.228 32.8453V32.846Z" fill="#2D2926"/>
<path d="M243.393 6.59309C240.15 4.36185 235.37 3.24589 229.054 3.24852L207.481 3.25642V5.73887C208.73 5.82173 209.737 5.95522 210.506 6.13869C211.275 6.32479 211.869 6.6753 212.285 7.19217C212.698 7.70905 212.981 8.41268 213.128 9.30045C213.273 10.1882 213.347 11.3561 213.348 12.8015L213.358 41.4434C213.358 42.8915 213.275 44.0692 213.108 44.9781C212.944 45.8888 212.632 46.5905 212.176 47.0876C211.717 47.5822 211.053 47.936 210.18 48.1431C209.443 48.318 208.516 48.4305 207.422 48.4864V50.9945L231.566 50.9853V48.5054C229.611 48.5054 228.052 48.4232 226.89 48.2602C225.725 48.0938 224.809 47.7439 224.144 47.2067C223.479 46.6694 223.043 45.9151 222.834 44.9445C222.626 43.9732 222.521 42.7021 222.52 41.1304L222.517 30.2201L227.815 30.2181C234.465 30.2155 239.537 29.0456 243.027 26.7085C246.517 24.374 248.261 20.9729 248.259 16.5098C248.257 12.1281 246.635 8.82105 243.392 6.59244L243.393 6.59309ZM234.941 24.0781C233.07 25.6906 230.12 26.4968 226.089 26.4981L222.035 26.4994L222.028 7.77875C222.028 7.07512 222.403 6.72396 223.151 6.72396L227.95 6.72199C231.317 6.72067 233.79 7.56766 235.371 9.25968C236.95 10.9543 237.74 13.3506 237.741 16.4506C237.742 19.9221 236.81 22.465 234.941 24.0774L234.941 24.0781Z" fill="#2D2926"/>
<path d="M297.237 36.7942H294.744C294.285 38.9044 293.725 40.6504 293.062 42.0353C292.397 43.4202 291.525 44.5256 290.445 45.3536C289.365 46.1815 288.003 46.7595 286.361 47.0909C284.72 47.4217 282.716 47.5868 280.347 47.5874C278.35 47.5881 276.668 47.475 275.296 47.2488C273.923 47.0226 272.823 46.6293 271.993 46.0717C271.16 45.5147 270.566 44.7808 270.214 43.8726C269.861 42.9645 269.683 41.8472 269.683 40.5254L269.678 27.7535C272.298 27.7528 274.386 27.8251 275.944 27.9678C277.504 28.1138 278.739 28.4433 279.652 28.9575C280.568 29.4744 281.233 30.228 281.65 31.2197C282.063 32.2107 282.399 33.5351 282.648 35.1877H284.954L284.947 17.0214H282.641C282.434 18.7173 282.145 20.0621 281.77 21.0538C281.397 22.0455 280.763 22.7997 279.868 23.3173C278.975 23.8348 277.72 24.1754 276.099 24.3405C274.478 24.5075 272.337 24.5917 269.676 24.5924L269.67 8.84343C269.67 7.85176 269.794 7.22375 270.045 6.95413C270.293 6.68386 270.958 6.55036 272.039 6.54971L279.084 6.54708C281.288 6.54642 283.148 6.67925 284.665 6.94887C286.182 7.21849 287.417 7.69196 288.374 8.37258C289.331 9.0532 290.079 9.96398 290.621 11.099C291.161 12.2367 291.555 13.6715 291.807 15.407L294.488 15.4056L294.047 3.25446L254.644 3.26958V5.75203C255.893 5.83489 256.9 5.96838 257.669 6.15186C258.437 6.33796 259.031 6.68846 259.448 7.20534C259.861 7.72221 260.143 8.42585 260.291 9.31361C260.435 10.2014 260.51 11.3693 260.51 12.8147L260.521 41.4566C260.521 42.9046 260.438 44.0824 260.271 44.9912C260.106 45.902 259.795 46.6037 259.338 47.1008C258.879 47.5953 258.215 47.9491 257.343 48.1563C256.47 48.3634 255.349 48.4877 253.976 48.5285V51.0083L296.247 50.9925L297.239 36.7949L297.237 36.7942Z" fill="#2D2926"/>
<path d="M340.662 42.2024C339.995 43.565 339.113 44.6526 338.013 45.4575C336.912 46.2651 335.55 46.8129 333.929 47.1016C332.308 47.3922 330.294 47.5369 327.884 47.5375C325.72 47.5382 323.914 47.4257 322.458 47.1989C321.004 46.9727 319.84 46.559 318.967 45.9613C318.094 45.3609 317.48 44.5139 317.127 43.419C316.774 42.3241 316.596 40.9089 316.595 39.1735L316.585 13.1955C316.585 11.6265 316.658 10.3652 316.802 9.41431C316.949 8.46341 317.248 7.71901 317.707 7.18109C318.164 6.64646 318.818 6.27228 319.67 6.06514C320.52 5.85799 321.653 5.7337 323.067 5.69293V3.21048L301.556 3.21837V5.70082C302.805 5.78368 303.813 5.91718 304.581 6.10065C305.35 6.28675 305.944 6.63725 306.36 7.15413C306.774 7.671 307.056 8.37464 307.203 9.26306C307.348 10.1508 307.422 11.3187 307.423 12.7641L307.433 41.4061C307.433 42.8541 307.351 44.0319 307.184 44.9407C307.019 45.8514 306.707 46.5531 306.251 47.0503C305.792 47.5448 305.128 47.8986 304.255 48.1057C303.383 48.3129 302.261 48.4371 300.889 48.4779V50.9577L343.845 50.9413L344.837 36.8673H342.343C341.887 39.0604 341.327 40.8366 340.663 42.2018L340.662 42.2024Z" fill="#2D2926"/>
<path d="M388.284 42.1833C387.617 43.5458 386.735 44.6335 385.634 45.4384C384.534 46.2459 383.172 46.7937 381.551 47.0824C379.93 47.3731 377.915 47.5178 375.506 47.5184C373.342 47.5191 371.536 47.4066 370.079 47.1797C368.625 46.9535 367.461 46.5399 366.588 45.9421C365.716 45.3424 365.101 44.4947 364.748 43.3998C364.395 42.3049 364.217 40.8898 364.216 39.1544L364.206 13.1764C364.206 11.6074 364.279 10.3461 364.423 9.39517C364.57 8.44428 364.869 7.69987 365.328 7.16261C365.785 6.62732 366.439 6.2538 367.291 6.04666C368.141 5.83951 369.275 5.71522 370.688 5.67445V3.192L349.177 3.19989V5.68234C350.426 5.7652 351.434 5.8987 352.202 6.08217C352.971 6.26827 353.565 6.61877 353.981 7.13565C354.395 7.65252 354.677 8.35616 354.824 9.24458C354.969 10.1323 355.043 11.3002 355.044 12.7457L355.054 41.3876C355.054 42.8356 354.972 44.0134 354.805 44.9222C354.64 45.833 354.329 46.5346 353.872 47.0318C353.413 47.5263 352.749 47.8801 351.876 48.0872C351.004 48.2944 349.882 48.4187 348.51 48.4594V50.9393L391.466 50.9228L392.458 36.8488H389.964C389.508 39.0419 388.948 40.8181 388.284 42.1833Z" fill="#2D2926"/>
<path d="M448.52 48.3582C447.109 48.2352 445.952 48.0511 445.059 47.8019C444.166 47.5553 443.385 47.1114 442.694 46.4709C442.004 45.8304 441.365 44.9124 440.755 43.7116C440.156 42.5134 439.414 40.8615 438.541 38.7526L423.632 2.55351L419.018 2.55549L402.638 43.4157C402.262 44.2837 401.867 45.0176 401.454 45.6186C401.039 46.2164 400.549 46.7037 399.988 47.0746C399.428 47.4481 398.784 47.7387 398.056 47.9433C397.33 48.153 396.468 48.3174 395.471 48.4411V50.9209L412.551 50.9143V48.4345C410.681 48.4352 409.278 48.2721 408.342 47.9393C407.408 47.6092 406.939 46.8247 406.938 45.5838C406.938 43.8911 407.913 40.8536 409.867 36.4707L427.51 36.4641L428.945 40.1822C429.443 41.5066 429.839 42.6213 430.131 43.5294C430.42 44.4402 430.568 45.184 430.568 45.762C430.568 46.7537 430.132 47.4172 429.26 47.748C428.388 48.0787 426.952 48.2859 424.958 48.3674V50.9104L448.521 50.9018V48.3589L448.52 48.3582ZM411.299 32.7493L418.71 13.9629H418.961L426.137 32.7434L411.299 32.7493Z" fill="#2D2926"/>
<path d="M129.933 48.0616C120.78 48.0649 114.176 37.5189 114.172 26.7099C114.169 18.6167 118.651 4.91623 129.917 4.91228C144.833 4.90636 147.509 21.5891 147.509 21.5891H149.913L149.907 3.23408H147.496C147.496 3.23408 147.084 5.80465 145.018 7.6341C140.691 3.3656 135.23 1.00546 129.585 1.00743C115.316 1.01269 103.712 12.5464 103.717 26.7145C103.723 40.8852 115.335 52.4149 129.604 52.4096C137.707 52.4064 150.116 48.5061 150.112 35.2541L146.508 35.2488C146.51 39.7666 142.925 48.057 129.933 48.0616Z" fill="#2D2926"/>
</g>
<defs>
<clipPath id="clip0_17_40">
<rect width="448" height="95" fill="white"/>
</clipPath>
</defs>
</svg>
