<svg width="260" height="111" viewBox="0 0 260 111" fill="none" xmlns="http://www.w3.org/2000/svg">
<g clip-path="url(#clip0_2538_36783)">
<path d="M98.7449 74.6014C98.7449 76.5776 97.7193 77.5764 96.0538 77.5764C94.3882 77.5764 93.3499 76.5181 93.3499 74.5249V68.4219H91.4683V74.6014C91.4683 77.7124 93.2397 79.3231 96.0241 79.3231C98.8084 79.3231 100.627 77.7124 100.627 74.5079V68.4219H98.7449V74.6014Z" fill="white"/>
<path d="M114.815 75.8424L109.081 68.4219H107.339V79.1531H109.187V71.5201L115.086 79.1531H116.663V68.4219H114.815V75.8424Z" fill="white"/>
<path d="M125.838 68.4219H123.957V79.1531H125.838V68.4219Z" fill="white"/>
<path d="M137.518 76.6711L134.293 68.4219H132.212L136.645 79.2296H138.328L142.761 68.4219H140.731L137.518 76.6711Z" fill="white"/>
<path d="M150.91 74.6014H156.275V72.9014H150.91V70.1091H156.966V68.4219H149.033V79.1531H157.042V77.4701H150.91V74.6014Z" fill="white"/>
<path d="M172.452 71.8433V71.8135C172.452 70.8785 172.13 70.0795 171.566 69.4973C170.88 68.8215 169.824 68.4263 168.477 68.4263H163.709V79.1575H165.591V75.4175H167.943L170.57 79.1575H172.804L169.913 75.0945C171.397 74.6653 172.452 73.607 172.452 71.8433ZM165.586 73.743V70.139H168.324C169.714 70.139 170.541 70.768 170.541 71.9155V71.9453C170.541 73.0333 169.685 73.7388 168.341 73.7388H165.591L165.586 73.743Z" fill="white"/>
<path d="M183.339 72.9312C181.275 72.4424 180.788 72.0727 180.788 71.2439V71.2142C180.788 70.5087 181.432 69.9434 182.53 69.9434C183.509 69.9434 184.471 70.3259 185.433 71.0484L186.441 69.6247C185.356 68.7492 184.119 68.2732 182.559 68.2732C180.436 68.2732 178.906 69.5439 178.906 71.3842V71.4139C178.906 73.3902 180.19 74.0659 182.466 74.6184C184.454 75.0774 184.882 75.4939 184.882 76.2589V76.2887C184.882 77.0877 184.148 77.6359 182.987 77.6359C181.673 77.6359 180.635 77.1302 179.61 76.2419L178.478 77.5892C179.762 78.7367 181.305 79.3062 182.941 79.3062C185.187 79.3062 186.763 78.1119 186.763 76.1017V76.0719C186.763 74.2954 185.602 73.4794 183.339 72.9312Z" fill="white"/>
<path d="M195.405 68.4219H193.523V79.1531H195.405V68.4219Z" fill="white"/>
<path d="M201.901 70.1686H205.309V79.1531H207.19V70.1686H210.598V68.4219H201.901V70.1686Z" fill="white"/>
<path d="M221.104 73.1606L218.12 68.4219H215.891L220.142 74.9244V79.1531H222.036V74.8776L226.287 68.4219H224.13L221.104 73.1606Z" fill="white"/>
<path d="M22.7919 77.6912L22.0078 78.1629L21.228 77.6912C10.0737 70.9082 3.41157 59.2122 3.41157 46.3984V30.1677H40.6168V33.0789H44.0241V26.8357H0V46.3984C0 60.3682 7.2639 73.1267 19.4311 80.5217L22.0078 82.0857L24.5888 80.5217C35.7135 73.7642 42.74 62.5187 43.8631 49.9599H40.4388C39.3284 61.3584 32.9079 71.5457 22.7876 77.6912H22.7919Z" fill="white"/>
<path d="M22.4403 42.1911C24.9068 42.1911 26.8436 43.3131 28.1912 45.5273C29.2168 47.2146 29.505 48.9316 29.5093 48.9486L29.5601 49.2716H31.285V40.7121H29.5559L29.5008 41.0351C29.5008 41.0351 29.3694 41.7916 28.8185 42.4291C26.958 40.7121 24.6568 39.7686 22.2962 39.7686C19.2745 39.7686 16.4266 40.9458 14.2864 43.0836C12.142 45.2213 10.9639 48.0561 10.9639 51.0651C10.9639 57.2913 16.0494 62.3573 22.3005 62.3573H22.3047C25.6739 62.3573 31.3697 60.7381 31.3697 54.6903V54.3078H29.0812V54.6861C29.0812 56.4328 27.6954 59.7393 22.4446 59.7436C20.7536 59.7436 19.1644 58.8043 17.9692 57.0958C16.8165 55.4468 16.1554 53.2496 16.1554 51.0608C16.1554 49.5648 16.5453 47.2741 17.6514 45.3361C18.4651 43.8996 19.9611 42.1911 22.4403 42.1911Z" fill="white"/>
<path d="M42.3332 34.439C42.1975 36.3812 41.4856 38.0727 40.0913 39.4412C38.7012 40.8097 37.0187 41.511 35.2261 41.5875C35.6075 41.6512 36.1457 41.6937 36.6585 41.8297C37.1713 41.9657 37.6799 42.1442 38.1545 42.3822C38.6292 42.616 39.0826 42.9135 39.498 43.2407C39.909 43.568 40.2947 43.942 40.6253 44.35C40.9601 44.7622 41.2567 45.217 41.494 45.693C41.7356 46.1647 41.9221 46.6747 42.0619 47.189C42.2018 47.6947 42.2611 48.2217 42.3416 48.6637C42.5239 45.1065 45.4566 41.7532 49.5632 41.596C45.4438 41.4685 42.4518 38.0812 42.3289 34.439H42.3332Z" fill="white"/>
<path d="M37.1754 77.0196C37.0991 76.9601 36.9847 76.9133 36.8448 76.8793L36.5481 76.8071C36.349 76.7603 36.2176 76.7178 36.1625 76.6881C36.0777 76.6371 36.0311 76.5606 36.0311 76.4501C36.0311 76.3523 36.0693 76.2673 36.1413 76.1951C36.2133 76.1228 36.3362 76.0846 36.5015 76.0846C36.7092 76.0846 36.8575 76.1398 36.9423 76.2546C36.9889 76.3183 37.0186 76.4076 37.0355 76.5266H37.3152C37.3152 76.2843 37.2389 76.1058 37.0821 75.9953C36.9253 75.8848 36.7346 75.8296 36.5142 75.8296C36.2727 75.8296 36.0862 75.8933 35.9506 76.0208C35.8192 76.1483 35.7514 76.3098 35.7514 76.5053C35.7514 76.6881 35.8192 76.8241 35.9548 76.9176C36.0311 76.9686 36.1667 77.0196 36.3532 77.0621L36.6414 77.1301C36.7982 77.1683 36.9126 77.2108 36.9847 77.2618C37.0567 77.3128 37.0948 77.3978 37.0948 77.5168C37.0948 77.6783 37.0101 77.7888 36.8406 77.8483C36.7516 77.8781 36.6541 77.8951 36.5481 77.8951C36.3108 77.8951 36.1413 77.8228 36.0481 77.6783C35.9972 77.6018 35.9718 77.4998 35.9633 77.3766H35.6836C35.6836 77.6146 35.7556 77.8016 35.904 77.9418C36.0523 78.0821 36.26 78.1501 36.527 78.1501C36.7558 78.1501 36.955 78.0991 37.1245 77.9928C37.294 77.8866 37.383 77.7166 37.383 77.4701C37.383 77.2746 37.3152 77.1258 37.1796 77.0238L37.1754 77.0196Z" fill="white"/>
<path d="M38.8455 77.7421L38.2182 75.8849H37.7944V78.0779H38.0784V76.7816C38.0784 76.7306 38.0784 76.6499 38.0741 76.5394C38.0741 76.4289 38.0699 76.3481 38.0699 76.2929V76.2249L38.7014 78.0779H38.9938L39.6168 76.2249C39.6168 76.3439 39.6168 76.4544 39.6168 76.5564C39.6168 76.6584 39.6168 76.7349 39.6168 76.7774V78.0736H39.9007V75.8806H39.4769L38.8539 77.7379L38.8455 77.7421Z" fill="white"/>
<path d="M115.981 54.6902C115.459 54.5457 115.002 54.2907 114.608 53.9167C114.209 53.5427 113.836 53.0114 113.485 52.3102C113.133 51.6132 112.709 50.6527 112.2 49.4244L103.555 28.3784H100.881L91.3835 52.1444C91.1674 52.6502 90.9385 53.0752 90.697 53.4237C90.4554 53.7722 90.1715 54.0527 89.8451 54.2694C89.5188 54.4862 89.1459 54.6562 88.7263 54.7752C88.3068 54.8984 87.8067 54.9919 87.2261 55.0642V56.5049H97.1302V55.0599C96.0453 55.0599 95.2316 54.9664 94.6891 54.7709C94.1467 54.5797 93.8755 54.1207 93.8755 53.4024C93.8755 52.4164 94.4391 50.6527 95.5749 48.1027H105.805L106.636 50.2617C106.924 51.0309 107.153 51.6812 107.323 52.2082C107.492 52.7394 107.577 53.1687 107.577 53.5044C107.577 54.0824 107.323 54.4649 106.818 54.6604C106.314 54.8517 105.479 54.9749 104.322 55.0217V56.5007H117.99V55.0174C117.167 54.9452 116.502 54.8389 115.981 54.6944V54.6902ZM96.4013 45.9352L100.699 35.0084H100.843L105.004 45.9309H96.4013V45.9352Z" fill="white"/>
<path d="M141.15 30.6692C139.269 29.3729 136.497 28.7227 132.835 28.7227H120.325V30.1719C121.049 30.2187 121.634 30.2994 122.079 30.4057C122.524 30.5162 122.868 30.7159 123.109 31.0177C123.351 31.3194 123.512 31.7274 123.596 32.2459C123.681 32.7644 123.724 33.4402 123.724 34.2817V50.9374C123.732 51.7789 123.681 52.4632 123.584 52.9944C123.486 53.5257 123.308 53.9337 123.041 54.2227C122.774 54.5117 122.389 54.7157 121.884 54.8347C121.456 54.9367 120.918 55.0004 120.287 55.0344V56.4922H134.289V55.0429C133.157 55.0429 132.25 54.9962 131.577 54.8984C130.903 54.8007 130.369 54.5967 129.983 54.2864C129.597 53.9762 129.343 53.5342 129.225 52.9689C129.102 52.4037 129.042 51.6642 129.042 50.7504V44.4052H132.115C135.971 44.4052 138.913 43.7209 140.938 42.3609C142.964 41.0052 143.973 39.0247 143.973 36.4279C143.973 33.8779 143.032 31.9569 141.15 30.6607V30.6692ZM136.247 40.8394C135.162 41.7787 133.45 42.2462 131.115 42.2462H128.763V31.3619C128.763 30.9539 128.974 30.7499 129.411 30.7499H132.195C134.149 30.7499 135.581 31.2387 136.501 32.2247C137.417 33.2107 137.874 34.6047 137.874 36.4067C137.874 38.4254 137.336 39.9044 136.251 40.8437L136.247 40.8394Z" fill="white"/>
<path d="M172.38 48.2345H170.935C170.668 49.4627 170.346 50.4785 169.96 51.2817C169.574 52.0892 169.07 52.731 168.443 53.2112C167.816 53.6915 167.027 54.0272 166.074 54.2227C165.12 54.414 163.959 54.5117 162.586 54.5117C161.429 54.5117 160.454 54.448 159.658 54.3162C158.861 54.1845 158.225 53.955 157.742 53.632C157.259 53.309 156.916 52.8797 156.712 52.3527C156.509 51.8257 156.403 51.1755 156.403 50.4062V42.9772C157.92 42.9772 159.132 43.0197 160.035 43.1005C160.937 43.1855 161.658 43.3767 162.188 43.6742C162.717 43.976 163.103 44.4137 163.345 44.9917C163.586 45.5697 163.781 46.339 163.925 47.2995H165.264V36.734H163.925C163.807 37.72 163.637 38.502 163.421 39.08C163.205 39.658 162.836 40.0957 162.319 40.3975C161.802 40.6992 161.073 40.8947 160.132 40.9925C159.191 41.0902 157.95 41.137 156.407 41.137V31.9782C156.407 31.4002 156.475 31.0347 156.619 30.8775C156.763 30.7202 157.149 30.6437 157.776 30.6437H161.861C163.141 30.6437 164.218 30.7202 165.099 30.8775C165.981 31.0347 166.697 31.311 167.252 31.7062C167.807 32.1015 168.24 32.6327 168.553 33.2915C168.867 33.9545 169.096 34.7875 169.24 35.799H170.795L170.541 28.7312L147.69 28.7397V30.1847C148.414 30.2315 148.999 30.3122 149.444 30.4185C149.889 30.529 150.232 30.7287 150.474 31.0305C150.715 31.3322 150.877 31.7402 150.961 32.2587C151.046 32.7772 151.088 33.453 151.088 34.2945V50.946C151.097 51.7875 151.046 52.4717 150.949 53.003C150.851 53.5342 150.673 53.9422 150.406 54.2312C150.139 54.5202 149.753 54.7242 149.249 54.8432C148.745 54.9622 148.092 55.0345 147.295 55.06V56.5007L171.808 56.4922L172.384 48.2345H172.38Z" fill="white"/>
<path d="M197.562 51.3794C197.176 52.1699 196.664 52.8032 196.024 53.2707C195.384 53.7424 194.595 54.0569 193.655 54.2269C192.714 54.3969 191.548 54.4819 190.15 54.4819C188.895 54.4819 187.849 54.4182 187.001 54.2864C186.158 54.1547 185.484 53.9124 184.975 53.5682C184.471 53.2197 184.115 52.7267 183.907 52.0892C183.704 51.4517 183.598 50.6314 183.598 49.6199V34.5112C183.594 33.5974 183.636 32.8664 183.716 32.3139C183.801 31.7614 183.975 31.3279 184.242 31.0134C184.505 30.7032 184.886 30.4864 185.382 30.3632C185.874 30.2442 186.531 30.1719 187.353 30.1464V28.7014H174.876V30.1507C175.601 30.1974 176.186 30.2782 176.631 30.3844C177.076 30.4949 177.419 30.6947 177.66 30.9964C177.902 31.2982 178.063 31.7062 178.148 32.2247C178.233 32.7432 178.275 33.4189 178.275 34.2604V50.9162C178.283 51.7577 178.233 52.4419 178.135 52.9732C178.038 53.5044 177.86 53.9124 177.593 54.2014C177.326 54.4904 176.94 54.6944 176.436 54.8134C175.931 54.9324 175.279 55.0047 174.482 55.0302V56.4709L199.393 56.4624L199.969 48.2769H198.524C198.261 49.5519 197.935 50.5847 197.549 51.3794H197.562Z" fill="white"/>
<path d="M225.176 51.3667C224.791 52.1572 224.278 52.7905 223.638 53.258C222.998 53.7297 222.21 54.0442 221.269 54.2142C220.328 54.3842 219.163 54.4692 217.764 54.4692C216.51 54.4692 215.463 54.4055 214.615 54.2737C213.772 54.142 213.098 53.8997 212.59 53.5555C212.085 53.207 211.729 52.714 211.522 52.0765C211.318 51.439 211.212 50.6187 211.212 49.6072V34.4985C211.208 33.5847 211.25 32.8537 211.331 32.3012C211.416 31.7487 211.589 31.3152 211.856 31.0007C212.119 30.6905 212.501 30.4737 212.996 30.3505C213.488 30.2315 214.145 30.1592 214.967 30.1337V28.6887H202.495V30.138C203.219 30.1847 203.804 30.2655 204.249 30.3717C204.694 30.478 205.038 30.682 205.279 30.9837C205.521 31.2855 205.682 31.6935 205.766 32.212C205.851 32.7305 205.894 33.4062 205.894 34.2477V50.9077C205.902 51.7492 205.851 52.4335 205.754 52.9647C205.656 53.496 205.478 53.904 205.211 54.193C204.944 54.482 204.559 54.686 204.054 54.805C203.55 54.924 202.897 54.9962 202.101 55.0217V56.4625L227.011 56.454L227.588 48.2685H226.143C225.88 49.5435 225.554 50.5762 225.168 51.371L225.176 51.3667Z" fill="white"/>
<path d="M260.11 54.9579C259.292 54.8857 258.623 54.7794 258.101 54.6349C257.584 54.4904 257.131 54.2354 256.728 53.8614C256.33 53.4874 255.957 52.9562 255.605 52.2549C255.258 51.5579 254.83 50.5974 254.321 49.3692L245.676 28.3147H243.001L233.504 52.0807C233.288 52.5864 233.059 53.0114 232.818 53.3599C232.576 53.7084 232.292 53.9889 231.966 54.2057C231.639 54.4224 231.267 54.5924 230.847 54.7114C230.427 54.8347 229.927 54.9282 229.347 55.0004V56.4412H239.251V54.9962C238.166 54.9962 237.352 54.9027 236.81 54.7072C236.267 54.5159 235.996 54.0569 235.996 53.3387C235.996 52.3527 236.56 50.5889 237.696 48.0389H247.926L248.757 50.1979C249.045 50.9672 249.274 51.6174 249.443 52.1444C249.613 52.6757 249.697 53.1049 249.697 53.4407C249.697 54.0187 249.443 54.4012 248.939 54.5967C248.435 54.7879 247.6 54.9112 246.443 54.9579V56.4369H260.106V54.9537L260.11 54.9579ZM238.526 45.8799L242.823 34.9532H242.968L247.129 45.8757H238.526V45.8799Z" fill="white"/>
<path d="M75.3514 54.7879C70.0412 54.7879 66.2143 48.6551 66.2101 42.3694C66.2101 37.6646 68.8079 29.6959 75.3429 29.6916C83.9926 29.6916 85.5437 39.3901 85.5437 39.3901H86.938V28.7184H85.5352C85.5352 28.7184 85.2979 30.2144 84.0986 31.2769C81.5897 28.7949 78.4239 27.4221 75.148 27.4221C66.8712 27.4221 60.1413 34.1329 60.1455 42.3736C60.1455 50.6144 66.8839 57.3209 75.1564 57.3166C79.8563 57.3166 87.0524 55.0471 87.0482 47.3376H84.9589C84.9589 49.9641 82.8823 54.7836 75.3471 54.7879H75.3514Z" fill="white"/>
</g>
<defs>
<clipPath id="clip0_2538_36783">
<rect width="260" height="110.5" fill="white"/>
</clipPath>
</defs>
</svg>
