<svg width="165" height="70" viewBox="0 0 165 70" fill="none" xmlns="http://www.w3.org/2000/svg">
<path fill-rule="evenodd" clip-rule="evenodd" d="M29.5117 17V21.1419H33.6536V20.979V17H29.5117Z" fill="white"/>
<path fill-rule="evenodd" clip-rule="evenodd" d="M29.5117 17V21.1419H33.6536V20.979V17H29.5117Z" fill="white"/>
<mask id="mask0_2713_5286" style="mask-type:alpha" maskUnits="userSpaceOnUse" x="0" y="17" width="34" height="37">
<path fill-rule="evenodd" clip-rule="evenodd" d="M0 17H33.6538V53.6718H0V17Z" fill="white"/>
</mask>
<g mask="url(#mask0_2713_5286)">
<path fill-rule="evenodd" clip-rule="evenodd" d="M25.111 17H4.08002C1.85006 17 0 18.799 0 21.029V33.4542C0 43.4506 10.4001 50.7175 14.8199 53.1686C16.0295 53.8396 17.5738 53.8396 18.7834 53.1686C23.2032 50.7175 33.6538 43.4506 33.6538 33.4542V25.2841H29.5119V21.1419H25.111V17Z" fill="white"/>
</g>
<path fill-rule="evenodd" clip-rule="evenodd" d="M53.5755 20.1987V30.8951H52.7657V25.7761H46.5464V30.8951H45.7363V20.1987H46.5464V25.0121H52.7657V20.1987H53.5755Z" fill="white"/>
<path fill-rule="evenodd" clip-rule="evenodd" d="M52.9599 30.7008H53.3812V20.3928H52.9599V25.2063H46.3521V20.3928H45.9305V30.7008H46.3521V25.5818H52.9599V30.7008ZM53.7696 31.0892H52.5714V25.9702H46.7405V31.0892H45.542V20.0044H46.7405V24.8178H52.5714V20.0044H53.7696V31.0892Z" fill="white"/>
<path fill-rule="evenodd" clip-rule="evenodd" d="M65.1568 27.4111L62.773 21.1918L60.3892 27.4111H65.1568ZM65.447 28.1752H60.0836L59.0443 30.8951H58.189L62.3451 20.1987H63.2008L67.3419 30.8951H66.4863L65.447 28.1752Z" fill="white"/>
<path fill-rule="evenodd" clip-rule="evenodd" d="M60.6714 27.2169H64.8742L62.7726 21.7346L60.6714 27.2169ZM65.439 27.6054H60.1063L62.7727 20.6493L65.439 27.6054ZM66.6198 30.7008H67.0579L63.0675 20.3928H62.4778L58.4724 30.7008H58.9103L59.9495 27.9808H65.5805L66.6198 30.7008ZM67.6251 31.0892H66.3523L65.3131 28.3693H60.2171L59.1779 31.0892H57.9048L62.2117 20.0044H63.3335L67.6251 31.0892Z" fill="white"/>
<path fill-rule="evenodd" clip-rule="evenodd" d="M70.9624 25.547C70.9624 22.4909 73.2698 20.0308 76.5248 20.0308C78.4957 20.0308 80.2225 21.0392 81.1087 22.5979L80.3904 23.0104C79.6875 21.6962 78.2054 20.81 76.5248 20.81C73.7129 20.81 71.7722 22.9188 71.7722 25.547C71.7722 28.1753 73.7129 30.284 76.5248 30.284C78.2205 30.284 79.7183 29.3823 80.4209 28.0378L81.1393 28.4503C80.2684 30.0243 78.5263 31.0633 76.5248 31.0633C73.2698 31.0633 70.9624 28.6031 70.9624 25.547Z" fill="white"/>
<path fill-rule="evenodd" clip-rule="evenodd" d="M76.5247 20.225C73.4645 20.225 71.1565 22.5129 71.1565 25.547C71.1565 28.5811 73.4645 30.869 76.5247 30.869C78.3408 30.869 79.9886 29.9743 80.8732 28.5215L80.4951 28.3042C79.7131 29.6312 78.1776 30.4782 76.5247 30.4782C73.7045 30.4782 71.5779 28.3583 71.5779 25.547C71.5779 22.7357 73.7045 20.6158 76.5247 20.6158C78.1572 20.6158 79.6799 21.4455 80.4628 22.745L80.8409 22.528C79.9492 21.1026 78.3136 20.225 76.5247 20.225ZM76.5246 31.2574C73.243 31.2574 70.7681 28.8024 70.7681 25.5469C70.7681 22.2914 73.243 19.8364 76.5246 19.8364C78.5215 19.8364 80.3426 20.8578 81.2777 22.5017L81.3733 22.6698L80.3136 23.2786L80.2193 23.102C79.5377 21.8276 78.0875 21.0041 76.5246 21.0041C73.9262 21.0041 71.9663 22.9572 71.9663 25.5469C71.9663 28.1368 73.9262 30.0897 76.5246 30.0897C78.1069 30.0897 79.5688 29.2488 80.2488 27.9478L80.3426 27.7686L81.4018 28.3769L81.3093 28.5442C80.383 30.2176 78.5498 31.2574 76.5246 31.2574Z" fill="white"/>
<path fill-rule="evenodd" clip-rule="evenodd" d="M92.2768 30.8951L86.9133 25.6233V30.8951H86.1035V20.1987H86.9133V25.1802L92.124 20.1987H93.209L87.7997 25.3941L93.3616 30.8951H92.2768Z" fill="white"/>
<mask id="mask1_2713_5286" style="mask-type:alpha" maskUnits="userSpaceOnUse" x="0" y="17" width="165" height="37">
<path fill-rule="evenodd" clip-rule="evenodd" d="M0 53.6718H165V17H0V53.6718Z" fill="white"/>
</mask>
<g mask="url(#mask1_2713_5286)">
<path fill-rule="evenodd" clip-rule="evenodd" d="M86.2978 30.7008H86.7191V20.3928H86.2978V30.7008ZM92.356 30.7008H92.889L87.5214 25.3919L92.7263 20.3928H92.2019L86.9638 25.4005L87.0493 25.4847L92.356 30.7008ZM93.8341 31.0892H92.1972L87.1074 26.0862V31.0892H85.9092V20.0044H87.1074V24.7256L92.0459 20.0044H93.6914L88.0778 25.3958L93.8341 31.0892Z" fill="white"/>
<path fill-rule="evenodd" clip-rule="evenodd" d="M104.623 27.9765C104.623 26.7845 103.675 25.8219 102.513 25.8219H98.7088V30.1311H102.513C103.675 30.1311 104.623 29.1685 104.623 27.9765ZM98.7088 20.963V25.058H102.162C103.262 25.058 104.164 24.141 104.164 23.0104C104.164 21.8797 103.262 20.963 102.162 20.963H98.7088ZM105.432 27.9765C105.432 29.5961 104.133 30.8951 102.513 30.8951H97.8989V20.1987H102.162C103.721 20.1987 104.974 21.4669 104.974 23.0103C104.974 24.0493 104.424 24.9052 103.599 25.3483C104.668 25.7608 105.432 26.754 105.432 27.9765Z" fill="white"/>
<path fill-rule="evenodd" clip-rule="evenodd" d="M98.9029 24.8636H102.162C103.159 24.8636 103.97 24.0323 103.97 23.0101C103.97 21.9882 103.159 21.157 102.162 21.157H98.9029V24.8636ZM102.162 25.2521H98.5145V20.7686H102.162C103.373 20.7686 104.358 21.7742 104.358 23.0102C104.358 24.2466 103.373 25.2521 102.162 25.2521ZM98.9029 29.9368H102.513C103.569 29.9368 104.428 29.0573 104.428 27.9764C104.428 26.8954 103.569 26.016 102.513 26.016H98.9029V29.9368ZM102.513 30.3252H98.5145V25.6275H102.513C103.784 25.6275 104.817 26.6813 104.817 27.9764C104.817 29.2715 103.784 30.3252 102.513 30.3252ZM98.0931 30.7008H102.513C104.016 30.7008 105.238 29.4787 105.238 27.9764C105.238 26.8903 104.567 25.9298 103.529 25.5295L103.134 25.3772L103.507 25.177C104.303 24.7489 104.779 23.9389 104.779 23.0102C104.779 21.567 103.605 20.3928 102.162 20.3928H98.0931V30.7008ZM102.513 31.0892H97.7046V20.0044H102.162C103.819 20.0044 105.168 21.3528 105.168 23.0102C105.168 23.9552 104.74 24.7945 104.008 25.3212C105.002 25.8449 105.626 26.8517 105.626 27.9764C105.626 29.6929 104.23 31.0892 102.513 31.0892Z" fill="white"/>
<path fill-rule="evenodd" clip-rule="evenodd" d="M111.283 25.7456H114.691C115.99 25.7456 117.044 24.6761 117.044 23.3618C117.044 22.0325 115.99 20.9627 114.691 20.9627H111.283V25.7456ZM114.66 26.5095H111.283V30.8951H110.473V20.1987H114.691C116.433 20.1987 117.854 21.6197 117.854 23.3618C117.854 24.8133 116.861 26.0358 115.5 26.4025L118.16 30.8951H117.227L114.66 26.5095Z" fill="white"/>
<path fill-rule="evenodd" clip-rule="evenodd" d="M111.477 25.5514H114.691C115.881 25.5514 116.85 24.5691 116.85 23.3618C116.85 22.1462 115.881 21.157 114.691 21.157H111.477V25.5514ZM114.691 25.9399H111.089V20.7686H114.691C116.095 20.7686 117.238 21.9319 117.238 23.3619C117.238 24.7834 116.095 25.9399 114.691 25.9399ZM117.339 30.701H117.819L115.203 26.2817L115.45 26.2152C116.751 25.8643 117.659 24.6912 117.659 23.3619C117.659 21.725 116.328 20.3931 114.691 20.3931H110.667V30.701H111.089V26.3154H114.771L117.339 30.701ZM118.5 31.0895H117.116L114.549 26.7039H111.477V31.0895H110.279V20.0046H114.691C116.542 20.0046 118.048 21.5105 118.048 23.3619C118.048 24.7823 117.132 26.0453 115.793 26.5153L118.5 31.0895Z" fill="white"/>
<path fill-rule="evenodd" clip-rule="evenodd" d="M122.895 30.8951H123.705V20.1987H122.895V30.8951Z" fill="white"/>
<path fill-rule="evenodd" clip-rule="evenodd" d="M123.089 30.7008H123.511V20.3928H123.089V30.7008ZM122.701 31.0892H123.899V20.0044H122.701V31.0892Z" fill="white"/>
<path fill-rule="evenodd" clip-rule="evenodd" d="M139.596 26.3263C139.596 28.9087 137.625 31.0633 134.431 31.0633C131.115 31.0633 128.808 28.6031 128.808 25.547C128.808 22.4907 131.115 20.0305 134.37 20.0305C136.356 20.0305 138.083 21.0698 138.969 22.6132L138.251 23.0407C137.548 21.6962 136.051 20.81 134.37 20.81C131.559 20.81 129.618 22.9188 129.618 25.547C129.618 28.1753 131.559 30.2838 134.431 30.2838C137.029 30.2838 138.603 28.6795 138.771 26.6777H134.232V25.9137H139.596V26.3263Z" fill="white"/>
<path fill-rule="evenodd" clip-rule="evenodd" d="M134.37 20.225C131.31 20.225 129.002 22.5129 129.002 25.547C129.002 28.5811 131.336 30.869 134.431 30.869C137.311 30.869 139.402 28.9586 139.402 26.3265V26.1079H134.427V26.4834H138.982L138.964 26.694C138.774 28.9576 136.953 30.4782 134.431 30.4782C131.53 30.4782 129.424 28.4042 129.424 25.547C129.424 22.7357 131.55 20.6158 134.37 20.6158C136.017 20.6158 137.546 21.4556 138.324 22.7717L138.702 22.5461C137.798 21.1096 136.156 20.225 134.37 20.225ZM134.431 31.2574C131.115 31.2574 128.614 28.8024 128.614 25.5469C128.614 22.2914 131.088 19.8364 134.37 19.8364C136.362 19.8364 138.189 20.8632 139.138 22.5165L139.233 22.6822L138.174 23.3128L138.079 23.1307C137.404 21.839 135.948 21.0041 134.37 21.0041C131.772 21.0041 129.812 22.9572 129.812 25.5469C129.812 28.179 131.755 30.0897 134.431 30.0897C136.659 30.0897 138.289 28.8057 138.554 26.8718H134.038V25.7194H139.79V26.3264C139.79 29.1836 137.536 31.2574 134.431 31.2574Z" fill="white"/>
<path fill-rule="evenodd" clip-rule="evenodd" d="M152.522 20.1987V30.8951H151.712V25.7761H145.493V30.8951H144.683V20.1987H145.493V25.0121H151.712V20.1987H152.522Z" fill="white"/>
<path fill-rule="evenodd" clip-rule="evenodd" d="M151.906 30.7008H152.328V20.3928H151.906V25.2063H145.298V20.3928H144.877V30.7008H145.298V25.5818H151.906V30.7008ZM152.716 31.0892H151.518V25.9702H145.687V31.0892H144.488V20.0044H145.687V24.8178H151.518V20.0044H152.716V31.0892Z" fill="white"/>
<path fill-rule="evenodd" clip-rule="evenodd" d="M164.806 20.9629H161.444V30.8954H160.619V20.9629H157.257V20.1987H164.806V20.9629Z" fill="white"/>
<path fill-rule="evenodd" clip-rule="evenodd" d="M160.814 30.7008H161.251V20.7683H164.612V20.3928H157.452V20.7683H160.814V30.7008ZM161.639 31.0892H160.425V21.1568H157.063V20.0044H165.001V21.1568H161.639V31.0892Z" fill="white"/>
<path fill-rule="evenodd" clip-rule="evenodd" d="M52.4458 46.9891L50.0623 40.77L47.6785 46.9891H52.4458ZM52.7361 47.7531H47.3726L46.3337 50.473H45.478L49.6344 39.7766H50.4898L54.631 50.473H53.7753L52.7361 47.7531Z" fill="white"/>
<path fill-rule="evenodd" clip-rule="evenodd" d="M47.9607 46.7951H52.1633L50.062 41.3128L47.9607 46.7951ZM52.7281 47.1835H47.3957L50.062 40.2274L52.7281 47.1835ZM53.9089 50.279H54.3473L50.3566 39.9711H49.7672L45.7615 50.279H46.1997L47.2387 47.5591H52.8696L53.9089 50.279ZM54.9144 50.6673H53.6413L52.6021 47.9474H47.5062L46.4672 50.6673H45.1938L49.501 39.5825H50.6226L54.9144 50.6673Z" fill="white"/>
<path fill-rule="evenodd" clip-rule="evenodd" d="M58.2515 45.1249C58.2515 42.0688 60.5589 39.6086 63.8138 39.6086C65.7848 39.6086 67.5116 40.6171 68.3978 42.1758L67.6794 42.5883C66.9766 41.2741 65.4945 40.3879 63.8138 40.3879C61.002 40.3879 59.0613 42.4966 59.0613 45.1249C59.0613 47.7529 61.002 49.8617 63.8138 49.8617C65.5095 49.8617 67.0074 48.9602 67.71 47.6154L68.4283 48.0282C67.5574 49.6019 65.8154 50.6412 63.8138 50.6412C60.5589 50.6412 58.2515 48.181 58.2515 45.1249Z" fill="white"/>
<path fill-rule="evenodd" clip-rule="evenodd" d="M63.8137 39.8027C60.7535 39.8027 58.4455 42.0907 58.4455 45.1248C58.4455 48.1588 60.7535 50.4468 63.8137 50.4468C65.6298 50.4468 67.2776 49.5521 68.1622 48.0993L67.7841 47.882C67.0021 49.2089 65.4666 50.0558 63.8137 50.0558C60.9935 50.0558 58.8669 47.9361 58.8669 45.1248C58.8669 42.3134 60.9935 40.1935 63.8137 40.1935C65.4462 40.1935 66.9689 41.0232 67.7518 42.3227L68.1299 42.1057C67.2382 40.6804 65.6026 39.8027 63.8137 39.8027ZM63.8137 50.8353C60.5321 50.8353 58.0571 48.3803 58.0571 45.1248C58.0571 41.8693 60.5321 39.4143 63.8137 39.4143C65.8106 39.4143 67.6317 40.4357 68.5668 42.0796L68.6623 42.2477L67.6026 42.8565L67.5084 42.6799C66.8268 41.4055 65.3766 40.582 63.8137 40.582C61.2152 40.582 59.2554 42.5351 59.2554 45.1248C59.2554 47.7145 61.2152 49.6673 63.8137 49.6673C65.396 49.6673 66.8579 48.8267 67.5379 47.5257L67.6317 47.3462L68.6908 47.9548L68.5984 48.1221C67.6721 49.7955 65.8388 50.8353 63.8137 50.8353Z" fill="white"/>
<path fill-rule="evenodd" clip-rule="evenodd" d="M79.1076 46.9891L76.724 40.77L74.3402 46.9891H79.1076ZM79.3977 47.7531H74.0343L72.9953 50.473H72.1396L76.2961 39.7766H77.1514L81.2926 50.473H80.4369L79.3977 47.7531Z" fill="white"/>
<path fill-rule="evenodd" clip-rule="evenodd" d="M74.6229 46.7951H78.8254L76.7241 41.3128L74.6229 46.7951ZM79.3902 47.1835H74.0578L76.7242 40.2274L79.3902 47.1835ZM80.571 50.279H81.0094L77.0188 39.9711H76.4293L72.4236 50.279H72.8618L73.9008 47.5591H79.5318L80.571 50.279ZM81.5765 50.6673H80.3035L79.2642 47.9474H74.1683L73.1293 50.6673H71.856L76.1631 39.5825H77.2847L81.5765 50.6673Z" fill="white"/>
<path fill-rule="evenodd" clip-rule="evenodd" d="M94.1731 45.125C94.1731 42.5884 92.4465 40.5407 89.9252 40.5407H86.7161V49.7089H89.9252C92.4465 49.7089 94.1731 47.6616 94.1731 45.125ZM94.9675 45.125C94.9675 48.0742 92.874 50.473 89.9252 50.473H85.9062V39.7769H89.9252C92.874 39.7769 94.9675 42.1759 94.9675 45.125Z" fill="white"/>
<path fill-rule="evenodd" clip-rule="evenodd" d="M86.9101 49.5147H89.925C92.2358 49.5147 93.9786 47.6276 93.9786 45.125C93.9786 42.6223 92.2358 40.735 89.925 40.735H86.9101V49.5147ZM89.9251 49.9032H86.5218V40.3465H89.9251C92.4575 40.3465 94.3672 42.4009 94.3672 45.125C94.3672 47.8488 92.4575 49.9032 89.9251 49.9032ZM86.1005 50.2788H89.9251C92.6888 50.2788 94.7733 48.0633 94.7733 45.1251C94.7733 42.1868 92.6888 39.9709 89.9251 39.9709H86.1005V50.2788ZM89.925 50.6671H85.7119V39.5823H89.925C92.9104 39.5823 95.1616 41.9653 95.1616 45.1249C95.1616 48.2846 92.9104 50.6671 89.925 50.6671Z" fill="white"/>
<path fill-rule="evenodd" clip-rule="evenodd" d="M106.228 49.709V50.473H100.07V39.7766H106.151V40.5408H100.88V44.697H105.769V45.4612H100.88V49.709H106.228Z" fill="white"/>
<path fill-rule="evenodd" clip-rule="evenodd" d="M100.264 50.2788H106.034V49.9033H100.685V45.2667H105.575V44.8912H100.685V40.3466H105.957V39.9709H100.264V50.2788ZM106.422 50.6671H99.8755V39.5823H106.346V40.7349H101.074V44.5026H105.964V45.655H101.074V49.5147H106.422V50.6671Z" fill="white"/>
<path fill-rule="evenodd" clip-rule="evenodd" d="M120.942 50.473H120.132V40.9686L116.174 47.5391H116.037L112.079 40.9686V50.473H111.269V39.7766H112.278L116.098 46.1029L119.918 39.7766H120.942V50.473Z" fill="white"/>
<path fill-rule="evenodd" clip-rule="evenodd" d="M120.326 50.2788H120.748V39.9709H120.028L116.098 46.4787L112.168 39.9709H111.463V50.2788H111.885V40.2697L116.106 47.2768L120.326 40.2697V50.2788ZM121.136 50.6671H119.938V41.6675L116.284 47.7333H115.927L112.273 41.6675V50.6671H111.075V39.5823H112.387L116.098 45.727L119.808 39.5823H121.136V50.6671Z" fill="white"/>
<path fill-rule="evenodd" clip-rule="evenodd" d="M130.185 46.0724V50.473H129.375V46.0724L125.479 39.7766H126.396L129.788 45.2931L133.165 39.7766H134.082L130.185 46.0724Z" fill="white"/>
<path fill-rule="evenodd" clip-rule="evenodd" d="M129.57 50.2788H129.991V46.017L133.733 39.9709H133.274L129.788 45.6645L126.287 39.9709H125.828L129.57 46.017V50.2788ZM130.379 50.6671H129.181V46.1274L125.13 39.5823H126.504L129.788 44.9214L133.056 39.5823H134.431L130.379 46.1274V50.6671Z" fill="white"/>
</g>
</svg>
