<svg width="19" height="19" viewBox="0 0 19 19" fill="none" xmlns="http://www.w3.org/2000/svg">
<g id="instagram copy">
<path id="instagram" fill-rule="evenodd" clip-rule="evenodd" d="M16.466 15.7358C16.466 16.1349 16.1442 16.4616 15.7503 16.4616H3.21583C2.822 16.4616 2.50017 16.1349 2.50017 15.7358V8.02394H4.15338C4.00317 8.52001 3.92248 9.04568 3.92248 9.58991C3.92248 12.6268 6.42728 15.0883 9.51707 15.0883C12.6072 15.0883 15.1123 12.6268 15.1123 9.58991C15.1123 9.04599 15.0313 8.52033 14.8814 8.02394H16.4657H16.466V15.7358ZM9.51707 5.83913C11.5135 5.83913 13.1323 7.42965 13.1323 9.39192C13.1323 11.3542 11.5135 12.9447 9.51707 12.9447C7.52062 12.9447 5.90186 11.3542 5.90186 9.39192C5.90186 7.42965 7.52062 5.83913 9.51707 5.83913ZM12.8021 3.15352C12.8021 2.7012 13.1664 2.33166 13.6124 2.33166H15.6467C16.0927 2.33166 16.457 2.7012 16.457 3.15352V5.12083C16.457 5.57283 16.0927 5.94269 15.6467 5.94269H13.6124C13.1664 5.94269 12.8021 5.57283 12.8021 5.12083V3.15352ZM16.1898 0.302979H2.81021C1.53934 0.302979 0.5 1.25736 0.5 2.64612V16.2167C0.5 17.6058 1.53934 18.5599 2.81021 18.5599H16.1898C17.4603 18.5599 18.5 17.6058 18.5 16.2167V2.64612C18.5 1.25736 17.4603 0.302979 16.1898 0.302979Z" fill="white"/>
</g>
</svg>
