<svg width="165" height="70" viewBox="0 0 165 70" fill="none" xmlns="http://www.w3.org/2000/svg">
<path fill-rule="evenodd" clip-rule="evenodd" d="M34.5122 35.2566L36.0023 34.3424C36.4084 35.07 36.8319 35.578 37.7799 35.578C38.66 35.578 39.2862 35.1721 39.2862 33.8006V25.5557H41.1147V33.8344C41.1147 36.12 39.7435 37.2204 37.8475 37.2204C36.0868 37.2204 35.071 36.3399 34.5122 35.2566Z" fill="white"/>
<path fill-rule="evenodd" clip-rule="evenodd" d="M50.5622 33.3265H53.9143L52.2552 29.2973L50.5622 33.3265ZM54.5744 34.9178H49.9018L49.0047 37.0679H47.1763L52.2213 25.3188H52.3232L57.3848 37.0679H55.4719L54.5744 34.9178Z" fill="white"/>
<path fill-rule="evenodd" clip-rule="evenodd" d="M61.751 31.312C61.751 27.9087 64.3414 25.4033 67.6258 25.4033C69.7586 25.4033 71.2318 26.2331 72.2308 27.6383L70.8424 28.6198C70.0807 27.5873 69.0983 27.0456 67.5748 27.0456C65.2893 27.0456 63.6303 28.8737 63.6303 31.312C63.6303 33.8004 65.323 35.5778 67.6426 35.5778C69.1324 35.5778 70.2329 35.0194 71.0963 33.9023L72.5016 34.867C71.3166 36.4412 69.8098 37.2202 67.5748 37.2202C64.2906 37.2202 61.751 34.7145 61.751 31.312Z" fill="white"/>
<path fill-rule="evenodd" clip-rule="evenodd" d="M83.3699 30.4993L88.0257 37.0683H85.8248L82.1678 31.8705L80.8812 33.3941V37.0683H79.0698V25.5557H80.8812V31.1256L85.4185 25.5557H87.4502L83.3699 30.4993Z" fill="white"/>
<path fill-rule="evenodd" clip-rule="evenodd" d="M92.9868 25.5558H94.8997L97.3719 32.9034L100.622 25.3191H100.724L103.991 32.9034L106.412 25.5558H108.207L104.177 37.2205H104.076L100.673 29.1959L97.1855 37.2205H97.1006L92.9868 25.5558Z" fill="white"/>
<path fill-rule="evenodd" clip-rule="evenodd" d="M113.539 25.5557H120.87V27.1646H115.35V30.4658H120.243V32.04H115.35V35.4596H121.107V37.0679H113.539V25.5557Z" fill="white"/>
<path fill-rule="evenodd" clip-rule="evenodd" d="M127.675 25.5557H129.486V35.4596H134.565V37.0679H127.675V25.5557Z" fill="white"/>
<path fill-rule="evenodd" clip-rule="evenodd" d="M139.116 31.312C139.116 27.9087 141.707 25.4033 144.991 25.4033C147.124 25.4033 148.597 26.2331 149.596 27.6383L148.207 28.6198C147.446 27.5873 146.464 27.0456 144.94 27.0456C142.655 27.0456 140.995 28.8737 140.995 31.312C140.995 33.8004 142.688 35.5778 145.008 35.5778C146.498 35.5778 147.598 35.0194 148.462 33.9023L149.867 34.867C148.681 36.4412 147.175 37.2202 144.94 37.2202C141.656 37.2202 139.116 34.7145 139.116 31.312Z" fill="white"/>
<mask id="mask0_2713_5398" style="mask-type:alpha" maskUnits="userSpaceOnUse" x="155" y="25" width="10" height="13">
<path fill-rule="evenodd" clip-rule="evenodd" d="M155.858 25.5557H165V37.0679H155.858V25.5557Z" fill="white"/>
</mask>
<g mask="url(#mask0_2713_5398)">
<path fill-rule="evenodd" clip-rule="evenodd" d="M163.189 25.5557H165V37.0679H163.189V32.2598H157.669V37.0679H155.858V25.5557H157.669V30.6518H163.189V25.5557Z" fill="white"/>
</g>
<path fill-rule="evenodd" clip-rule="evenodd" d="M143.875 40.491H145.994V40.9556H144.399V41.9095H145.813V42.3646H144.399V43.3525H146.062V43.8172H143.875V40.491ZM139.85 40.8394H138.861V40.3747H141.361V40.8394H140.373V43.7009H139.85V40.8394ZM133.712 42.5269V40.3747H134.235V42.4975C134.235 43.0308 134.499 43.2705 134.984 43.2705C135.463 43.2705 135.727 43.0308 135.727 42.4975V40.3747H136.25V42.5269C136.25 43.339 135.703 43.745 134.984 43.745C134.26 43.745 133.712 43.339 133.712 42.5269ZM129.706 40.8394H128.717V40.3747H131.217V40.8394H130.229V43.7009H129.706V40.8394ZM125.898 43.7009H126.421V40.3747H125.898V43.7009ZM121.741 40.8394H120.753V40.3747H123.253V40.8394H122.265V43.7009H121.741V40.8394ZM116.814 42.8251C116.966 43.1139 117.225 43.2754 117.568 43.2754C117.92 43.2754 118.155 43.1088 118.155 42.8399C118.155 42.5267 117.915 42.4093 117.622 42.2774L117.392 42.1747C116.903 41.9593 116.565 41.7148 116.565 41.1962C116.565 40.6876 116.951 40.3304 117.519 40.3304C117.979 40.3304 118.287 40.5015 118.497 40.8539L118.101 41.1129C117.974 40.8979 117.793 40.7903 117.529 40.7903C117.245 40.7903 117.074 40.9467 117.074 41.1768C117.074 41.4407 117.24 41.5339 117.602 41.6954L117.832 41.7978C118.336 42.0231 118.673 42.2627 118.673 42.8251C118.673 43.4365 118.204 43.7448 117.573 43.7448C117.005 43.7448 116.599 43.471 116.374 43.0452L116.814 42.8251ZM111.586 41.5143V43.7009H111.097V40.3259H111.137L113.269 42.5614V40.3747H113.758V43.7498H113.719L111.586 41.5143ZM107.8 43.7009H108.324V40.3747H107.8V43.7009ZM100.406 40.8394H99.4176V40.3747H101.917V40.8394H100.929V43.7009H100.406V40.8394ZM94.6201 41.5143V43.7009H94.1309V40.3259H94.17L96.3029 42.5614V40.3747H96.7919V43.7498H96.7528L94.6201 41.5143ZM89.1817 40.3747H91.2997V40.8394H89.7051V41.7932H91.1188V42.2483H89.7051V43.2363H91.3682V43.7009H89.1817V40.3747ZM83.3792 40.306H83.4036L85.0276 42.1796L86.632 40.306H86.6564V43.7008H86.1625V41.5436L85.0276 42.8986H85.0033L83.8732 41.5436V43.7008H83.3792V40.306ZM78.4298 40.3747H80.5478V40.8394H78.9532V41.7932H80.367V42.2483H78.9532V43.2363H80.6165V43.7009H78.4298V40.3747ZM72.5807 42.0374C72.5807 41.0541 73.334 40.3304 74.2878 40.3304C74.9043 40.3304 75.2759 40.5507 75.5498 40.8586L75.1879 41.2011C74.9874 40.9812 74.7575 40.8051 74.2733 40.8051C73.5981 40.8051 73.1237 41.3332 73.1237 42.0374C73.1237 42.7421 73.603 43.2703 74.3613 43.2703C74.7232 43.2703 74.9775 43.1873 75.1684 43.06V42.3897H74.2782V41.9251H75.6526V43.3096C75.3737 43.5393 74.9874 43.7448 74.3613 43.7448C73.3389 43.7448 72.5807 43.0206 72.5807 42.0374ZM68.3991 42.6201H69.3676L68.8882 41.4556L68.3991 42.6201ZM69.5585 43.0795H68.2085L67.9491 43.7008H67.4208L68.8786 40.306H68.908L70.3705 43.7008H69.8179L69.5585 43.0795ZM62.6379 41.5143V43.7009H62.1488V40.3259H62.188L64.3207 42.5614V40.3747H64.81V43.7498H64.7707L62.6379 41.5143ZM57.9116 42.6201H58.8802L58.4009 41.4556L57.9116 42.6201ZM59.0709 43.0795H57.7207L57.4616 43.7008H56.9334L58.3908 40.306H58.4202L59.883 43.7008H59.3301L59.0709 43.0795ZM51.3901 40.3059H51.4147L53.0388 42.1795L54.6431 40.3059H54.6675V43.7008H54.1736V41.5436L53.0388 42.8986H53.0142L51.8844 41.5436V43.7008H51.3901V40.3059Z" fill="white"/>
<path fill-rule="evenodd" clip-rule="evenodd" d="M146.551 40.489H146.344V40.3916H146.868V40.489H146.661V41.0885H146.551V40.489Z" fill="white"/>
<path fill-rule="evenodd" clip-rule="evenodd" d="M147.008 40.3774H147.013L147.354 40.77L147.69 40.3774H147.695V41.0887H147.592V40.6367L147.354 40.9206H147.348L147.111 40.6367V41.0887H147.008V40.3774Z" fill="white"/>
<mask id="mask1_2713_5398" style="mask-type:alpha" maskUnits="userSpaceOnUse" x="0" y="16" width="31" height="39">
<path fill-rule="evenodd" clip-rule="evenodd" d="M0 16H30.8194V54.5419H0V16Z" fill="white"/>
</mask>
<g mask="url(#mask1_2713_5398)">
<path fill-rule="evenodd" clip-rule="evenodd" d="M7.57094 16C5.55078 16 3.65003 16.748 2.2197 18.1114C0.788372 19.4741 0 21.2869 0 23.2126C0 26.494 2.80396 29.1628 6.24834 29.1628C9.10747 29.1628 11.4306 26.9483 11.4306 24.2251C11.4306 21.9483 9.48505 20.0917 7.09545 20.0917C6.11881 20.0917 5.81258 20.7408 5.91381 21.1749C6.022 21.639 6.58943 21.8899 7.09545 21.8899C8.4451 21.8899 9.54577 22.9394 9.54577 24.2251C9.54577 25.9573 8.06743 27.3684 6.24834 27.3684C3.84341 27.3684 1.88596 25.502 1.88596 23.2126C1.88596 21.7665 2.47787 20.4077 3.55252 19.3836C4.62716 18.3585 6.05337 17.8167 7.57044 17.8167L28.9012 17.828V29.161C28.9012 38.6579 23.8595 47.3321 15.4081 52.3909C7.34171 47.5616 2.6296 39.529 2.19701 30.5387C2.08028 29.6258 0.657846 29.5253 0.381501 30.4055C0.792046 40.6749 5.46593 48.1557 14.5116 54.0125L15.4069 54.5419L16.3046 54.0125C25.3944 48.6275 30.8194 39.3386 30.8194 29.1611V16H7.57094Z" fill="white"/>
</g>
<path fill-rule="evenodd" clip-rule="evenodd" d="M15.2886 50.8663V24.0005C15.2886 23.5065 14.8645 23.1018 14.3446 23.1018C13.8236 23.1018 13.4016 23.5065 13.4016 24.0005C13.4016 24.0005 13.3952 48.6605 13.3882 49.5373C13.388 49.5531 13.3917 49.5658 13.3991 49.574C13.4388 49.6188 13.6604 49.7937 13.8105 49.9083C14.5063 50.4396 15.1154 50.8144 15.2607 50.8962C15.279 50.9064 15.2886 50.8942 15.2886 50.8663Z" fill="white"/>
<path fill-rule="evenodd" clip-rule="evenodd" d="M19.0388 48.2177V23.9829C19.0388 23.4888 18.6157 23.0862 18.0984 23.0862C17.5758 23.0862 17.1528 23.4888 17.1528 23.9829V49.7622C17.1528 49.7622 17.1554 49.7759 17.1603 49.7838C17.1685 49.7968 17.1876 49.8055 17.2118 49.7901C17.2612 49.7586 18.6568 48.5899 18.7643 48.4982C18.8719 48.4067 18.9672 48.3312 19.0248 48.2567C19.0399 48.2455 19.0388 48.2177 19.0388 48.2177Z" fill="white"/>
<path fill-rule="evenodd" clip-rule="evenodd" d="M22.8007 44.2006V24.0054C22.8007 23.5075 22.3782 23.1057 21.8571 23.1057C21.3378 23.1057 20.9141 23.5075 20.9141 24.0054V46.2744C20.9141 46.2744 20.9131 46.2898 20.9208 46.3012C20.9286 46.3127 20.9455 46.32 20.9709 46.2968C21.1031 46.1758 21.4245 45.8144 21.5246 45.7058C21.6594 45.5596 22.5751 44.4856 22.769 44.2832C22.8007 44.2501 22.8007 44.2006 22.8007 44.2006Z" fill="white"/>
<path fill-rule="evenodd" clip-rule="evenodd" d="M26.5568 36.8014V24.0055C26.5568 23.5075 26.1338 23.1057 25.6134 23.1057C25.0919 23.1057 24.6719 23.5075 24.6719 24.0055V40.8773C24.6719 40.8773 24.6891 40.9533 24.7272 40.8938C24.9275 40.5807 25.2119 40.015 25.6824 38.9861C25.938 38.4272 26.5009 36.9757 26.5422 36.8803C26.5568 36.8466 26.5568 36.8014 26.5568 36.8014Z" fill="white"/>
<path fill-rule="evenodd" clip-rule="evenodd" d="M27.6567 19.6531H14.3322C13.8102 19.6531 13.3882 20.0557 13.3882 20.5518C13.3882 21.0488 13.8102 21.4494 14.3322 21.4494H27.6606C27.7101 21.4494 27.7174 21.3876 27.7174 21.3876C27.7174 21.3876 27.7128 19.7673 27.7129 19.7141C27.713 19.6531 27.6567 19.6531 27.6567 19.6531Z" fill="white"/>
</svg>
