<svg width="20" height="19" viewBox="0 0 20 19" fill="none" xmlns="http://www.w3.org/2000/svg">
<g id="linkedin copy">
<path id="linkedin" fill-rule="evenodd" clip-rule="evenodd" d="M14.6217 5.82586C12.4861 5.82586 11.5334 6.99579 11 7.81566V7.85371H10.9732C10.9812 7.8419 10.9919 7.82747 11 7.81566V6.10899H6.98136C7.03405 7.23725 6.98136 18.1501 6.98136 18.1501H11V11.4262C11 11.0656 11.0246 10.7064 11.1338 10.4491C11.4219 9.72934 12.0843 8.98526 13.1931 8.98526C14.6485 8.98526 15.231 10.0899 15.231 11.7083V18.1501H19.25V11.2454C19.25 7.54663 17.2657 5.82586 14.6217 5.82586ZM0.737931 18.1501H4.7556V6.10932H0.737931V18.1501ZM5.0194 2.38431C5.0194 3.5398 4.14849 4.46433 2.74677 4.46433H2.71994C1.37091 4.46433 0.5 3.5398 0.5 2.38431C0.5 1.20257 1.39774 0.302979 2.7736 0.302979C4.14849 0.302979 4.99483 1.20257 5.0194 2.38431Z" fill="white"/>
</g>
</svg>
