<svg width="165" height="70" viewBox="0 0 165 70" fill="none" xmlns="http://www.w3.org/2000/svg">
<path fill-rule="evenodd" clip-rule="evenodd" d="M98.769 0L98.2441 0.260465L125.478 56.7241L126.003 56.4629L98.769 0Z" fill="white"/>
<path fill-rule="evenodd" clip-rule="evenodd" d="M39.9458 44.8517H39.1367L41.9371 52.2144H42.7249L45.5351 44.8517H44.7366L42.3519 51.2468H42.3314L39.9458 44.8517ZM47.6509 48.7098H51.208V48.0447H47.6509V45.5176H51.4572V44.8517H46.9041V52.2144H51.5818V51.5485H47.6509V48.7098ZM54.2362 44.8517H53.3025V52.2144H54.0501V45.881H54.0706L58.3433 52.2144H59.2762V44.8517H58.5294V51.1226H58.5097L54.2362 44.8517ZM63.8391 45.5176H66.2976V44.8517H60.6346V45.5176H63.0923V52.2144H63.8391V45.5176ZM71.8197 52.1157C72.1754 51.925 72.4574 51.6849 72.6649 51.3931C72.8723 51.1021 73.0157 50.7848 73.0952 50.4419C73.1748 50.0983 73.2149 49.7736 73.2149 49.4686V44.8517H72.4673V49.3864C72.4673 49.684 72.4329 49.9734 72.364 50.2537C72.2943 50.5348 72.1828 50.7848 72.0271 51.0026C71.8713 51.2213 71.6655 51.398 71.4098 51.5337C71.154 51.6685 70.84 51.7359 70.4662 51.7359C70.0924 51.7359 69.7784 51.6685 69.5226 51.5337C69.2669 51.398 69.0611 51.2213 68.9053 51.0026C68.7496 50.7848 68.6373 50.5348 68.5684 50.2537C68.4996 49.9734 68.4651 49.684 68.4651 49.3864V44.8517H67.7175V49.4686C67.7175 49.7736 67.7577 50.0983 67.8372 50.4419C67.9167 50.7848 68.0602 51.1021 68.2676 51.3931C68.475 51.6849 68.7553 51.925 69.1078 52.1157C69.4603 52.3064 69.9129 52.4018 70.4662 52.4018C71.0122 52.4018 71.4631 52.3064 71.8197 52.1157ZM76.0243 48.7731H77.2695L79.3018 52.2144H80.215L78.068 48.7098C78.3377 48.6819 78.5861 48.6194 78.8148 48.5232C79.0427 48.4262 79.2403 48.2955 79.4059 48.1327C79.5715 47.9699 79.7027 47.7776 79.7994 47.5556C79.8961 47.3345 79.9445 47.0878 79.9445 46.8174C79.9445 46.4565 79.883 46.1515 79.7584 45.9016C79.6338 45.6525 79.4592 45.4502 79.2346 45.2932C79.0099 45.1378 78.7435 45.0252 78.4361 44.9553C78.1287 44.8863 77.7942 44.8517 77.4351 44.8517H75.2783V52.2144H76.0243V48.7731ZM76.0243 45.4963H77.3523C77.6286 45.4963 77.8811 45.5201 78.109 45.5686C78.3377 45.6179 78.5304 45.6936 78.6902 45.798C78.8493 45.9016 78.973 46.0372 79.0632 46.2041C79.1534 46.3701 79.1977 46.5748 79.1977 46.8174C79.1977 47.2539 79.0354 47.5811 78.7107 47.7998C78.3861 48.0184 77.9229 48.1269 77.3212 48.1269H76.0243V45.4963ZM82.4956 48.7098H86.0535V48.0447H82.4956V45.5176H86.3019V44.8517H81.7496V52.2144H86.4265V51.5485H82.4956V48.7098ZM92.2961 45.5579C92.1166 45.3154 91.8501 45.1066 91.4976 44.9298C91.1451 44.7523 90.7205 44.6643 90.2221 44.6643C89.9523 44.6643 89.6794 44.7021 89.4031 44.7786C89.126 44.855 88.8743 44.9759 88.6456 45.1428C88.4177 45.3096 88.2324 45.5201 88.0906 45.7774C87.9488 46.0331 87.8783 46.3389 87.8783 46.6924C87.8783 47.0253 87.9357 47.3057 88.0496 47.535C88.1636 47.7636 88.3136 47.956 88.5005 48.1121C88.6874 48.2675 88.8981 48.3949 89.1334 48.492C89.3678 48.589 89.6064 48.6753 89.8491 48.7509C90.0835 48.8282 90.3089 48.9046 90.5229 48.9795C90.7377 49.0567 90.9271 49.1513 91.0935 49.2664C91.2591 49.3806 91.3919 49.5237 91.4927 49.693C91.5927 49.8632 91.6435 50.0753 91.6435 50.3318C91.6435 50.5677 91.5927 50.7741 91.4927 50.9508C91.3919 51.1284 91.264 51.2764 91.1091 51.398C90.9533 51.5197 90.7787 51.6101 90.5852 51.6685C90.3917 51.7269 90.2016 51.7565 90.0146 51.7565C89.6277 51.7565 89.29 51.6685 89.0039 51.4918C88.7169 51.315 88.494 51.0955 88.3349 50.8308L87.6922 51.3093C87.8226 51.4901 87.975 51.6496 88.148 51.7885C88.321 51.9266 88.5071 52.0409 88.7079 52.1313C88.9088 52.2218 89.1194 52.2892 89.3408 52.3344C89.5613 52.3788 89.7826 52.4018 90.004 52.4018C90.2942 52.4018 90.5836 52.3607 90.8705 52.2769C91.1574 52.1938 91.4124 52.0648 91.6353 51.8921C91.8583 51.7195 92.0403 51.4992 92.1797 51.232C92.3199 50.9656 92.3895 50.6483 92.3895 50.2808C92.3895 49.9125 92.324 49.6092 92.1928 49.3699C92.0625 49.1307 91.8928 48.9334 91.6862 48.7772C91.4796 48.6218 91.2468 48.4952 90.9885 48.3974C90.7295 48.3004 90.4729 48.2108 90.218 48.1269C90.0105 48.0579 89.813 47.9888 89.6228 47.919C89.4334 47.8499 89.2645 47.7619 89.1162 47.6542C88.9678 47.5466 88.8489 47.4167 88.7587 47.2646C88.6694 47.1117 88.6251 46.9177 88.6251 46.6825C88.6251 46.4458 88.6719 46.2411 88.7645 46.0676C88.8588 45.8958 88.9809 45.7511 89.1334 45.6368C89.285 45.5217 89.4547 45.4371 89.6416 45.382C89.8286 45.3261 90.0114 45.299 90.1909 45.299C90.5434 45.299 90.8443 45.3664 91.0935 45.5012C91.3419 45.6368 91.546 45.8152 91.705 46.0372L92.2961 45.5579Z" fill="white"/>
<path fill-rule="evenodd" clip-rule="evenodd" d="M94.8833 68.7934L94.416 68.4227L125.168 29.4885L125.635 29.8593L94.8833 68.7934Z" fill="white"/>
<path fill-rule="evenodd" clip-rule="evenodd" d="M57.8859 15.6668C56.7981 14.6688 55.5307 13.915 54.0846 13.4045C52.6385 12.8939 51.2211 12.6375 49.8324 12.6375C48.6749 12.6375 47.5297 12.783 46.3959 13.0732C45.2622 13.3634 44.2432 13.8221 43.3414 14.4485C42.4388 15.0749 41.7101 15.8757 41.1543 16.8498C40.5984 17.8248 40.3205 18.9971 40.3205 20.3659C40.3205 21.4798 40.5001 22.4261 40.8591 23.2029C41.2174 23.9806 41.692 24.6424 42.2823 25.1875C42.8725 25.7333 43.5431 26.1797 44.2956 26.5275C45.0474 26.876 45.8172 27.1777 46.6041 27.4334C47.4141 27.6891 48.1371 27.9258 48.7733 28.147C49.4094 28.3673 49.9423 28.6115 50.371 28.8778C50.7981 29.145 51.1285 29.4409 51.3597 29.7657C51.5909 30.0904 51.7073 30.4842 51.7073 30.9495C51.7073 31.4362 51.6138 31.8538 51.4294 32.2023C51.2441 32.5509 50.9957 32.8288 50.6825 33.0376C50.371 33.2464 50.0062 33.3968 49.5898 33.4897C49.1733 33.5835 48.7446 33.6295 48.3044 33.6295C47.3329 33.6295 46.3549 33.3804 45.372 32.8806C44.3883 32.3824 43.5956 31.7617 42.9938 31.0185L39.1064 34.9868C40.1935 36.1245 41.5584 37.0009 43.2021 37.615C44.8449 38.2299 46.5459 38.5374 48.3044 38.5374C49.5078 38.5374 50.6768 38.3754 51.8106 38.0507C52.9451 37.726 53.9518 37.227 54.8314 36.5537C55.7102 35.8804 56.4103 35.0279 56.9309 33.9945C57.4523 32.9628 57.7121 31.7379 57.7121 30.3222C57.7121 29.0924 57.4695 28.0656 56.9834 27.241C56.4972 26.4181 55.884 25.7276 55.143 25.171C54.4027 24.6128 53.5813 24.1672 52.6787 23.8302C51.7761 23.494 50.9088 23.1857 50.0751 22.907C49.4971 22.722 48.9758 22.542 48.5134 22.3677C48.0502 22.1934 47.651 22.0027 47.3157 21.7939C46.9796 21.5851 46.7255 21.3409 46.5517 21.0622C46.3779 20.7844 46.2918 20.4358 46.2918 20.0182C46.2918 19.5307 46.4008 19.1303 46.6214 18.8179C46.8411 18.5039 47.1132 18.249 47.437 18.0509C47.7608 17.8544 48.1257 17.7212 48.5306 17.6514C48.9348 17.5815 49.334 17.547 49.7283 17.547C50.4924 17.547 51.2843 17.7385 52.1057 18.1208C52.9279 18.5039 53.5928 19.021 54.1027 19.6696L57.8859 15.6668ZM78.9567 37.9109V32.8288H67.5356V27.7113H77.741V22.9423H67.5356V18.2778H78.3312V13.2647H61.8086V37.9109H78.9567ZM84.0934 37.9109H90.0647V13.2647H84.0934V37.9109Z" fill="white"/>
</svg>
