<svg width="165" height="70" viewBox="0 0 165 70" fill="none" xmlns="http://www.w3.org/2000/svg">
<path fill-rule="evenodd" clip-rule="evenodd" d="M43.7655 30.4043L43.7558 29.4949H26.027C25.8366 30.0183 25.67 30.5529 25.5294 31.0981C25.3859 31.656 25.2694 32.2249 25.181 32.8029C25.1369 33.0918 25.0997 33.3831 25.0699 33.6766C25.0685 33.6895 25.0682 33.7027 25.0669 33.7153H38.6041L38.635 36.6411C38.635 43.9116 37.8029 48.5467 36.422 51.8585C37.3403 52.1953 38.2961 52.4533 39.2793 52.6328C39.8245 51.8246 40.3269 50.9442 40.7859 49.9561C42.8186 45.5782 43.7655 39.3654 43.7655 30.4043Z" fill="white"/>
<path fill-rule="evenodd" clip-rule="evenodd" d="M36.0802 36.2659H25C25.2851 42.5546 28.8947 47.9771 34.1148 50.8146C35.3727 47.8038 36.0845 43.5561 36.0845 36.6546L36.0802 36.2659Z" fill="white"/>
<path fill-rule="evenodd" clip-rule="evenodd" d="M59.8133 33.6765C59.7835 33.383 59.7463 33.0917 59.7022 32.8028C59.6138 32.2245 59.4973 31.6559 59.3538 31.0981C59.0668 29.9818 58.6721 28.9092 58.1815 27.8915C57.9363 27.3824 57.667 26.8873 57.3755 26.4073C56.792 25.4472 56.1187 24.548 55.3673 23.7209C54.6156 22.8938 53.7858 22.1394 52.8893 21.469C51.5447 20.4635 50.0502 19.6472 48.4453 19.0597C47.9107 18.8637 47.3633 18.6933 46.8055 18.5495C45.4106 18.1906 43.9484 18 42.4415 18C40.9346 18 39.4722 18.1906 38.0775 18.5495C37.5194 18.6933 36.9723 18.8637 36.4374 19.0597C34.8328 19.6472 33.3383 20.4635 31.9937 21.469C31.0972 22.1394 30.2674 22.8938 29.5157 23.7209C28.764 24.548 28.091 25.4472 27.5075 26.4073C27.4004 26.5836 27.2997 26.764 27.1987 26.9444H46.2788L46.3157 30.3908C46.3157 39.7498 45.2935 46.3037 43.0987 51.0303C42.7869 51.7018 42.455 52.3248 42.1085 52.9155C42.2197 52.9176 42.3298 52.9238 42.4415 52.9238C52.0853 52.9238 59.9035 45.1059 59.9035 35.462C59.9035 34.8592 59.8728 34.2637 59.8133 33.6765Z" fill="white"/>
<path fill-rule="evenodd" clip-rule="evenodd" d="M56.7939 51.1821C56.8561 51.251 56.9555 51.3118 57.0839 51.3118C57.2331 51.3118 57.2856 51.2359 57.2856 51.1694C57.2856 51.073 57.1806 51.0453 57.0632 51.0149C56.9156 50.9761 56.7441 50.9336 56.7441 50.7459C56.7441 50.5938 56.8782 50.4834 57.0702 50.4834C57.2123 50.4834 57.3241 50.5289 57.4056 50.6118L57.3254 50.7141C57.2551 50.6393 57.1585 50.6062 57.0591 50.6062C56.9568 50.6062 56.8863 50.6589 56.8863 50.7362C56.8863 50.8189 56.9859 50.8452 57.1006 50.8741C57.2511 50.9142 57.4264 50.9613 57.4264 51.157C57.4264 51.3005 57.3268 51.4346 57.0785 51.4346C56.914 51.4346 56.7939 51.3754 56.7153 51.2884L56.7939 51.1821Z" fill="white"/>
<path fill-rule="evenodd" clip-rule="evenodd" d="M58.4476 50.6866L58.1493 51.4184H58.0914L57.7931 50.6866V51.4184H57.6553V50.4973H57.8526L58.1205 51.1588L58.3881 50.4973H58.5857V51.4184H58.4476V50.6866Z" fill="white"/>
<path fill-rule="evenodd" clip-rule="evenodd" d="M67.2892 25.1169C67.885 25.7515 68.8178 26.3091 70.0224 26.3091C71.266 26.3091 71.7584 25.6998 71.7584 25.1301C71.7584 24.3523 70.8384 24.1191 69.7892 23.8475C68.3774 23.4975 66.7192 23.0831 66.7192 21.2564C66.7192 19.8316 67.9757 18.7302 69.867 18.7302C71.2143 18.7302 72.3025 19.1578 73.1056 19.9353L72.2376 21.0623C71.564 20.3884 70.6443 20.0775 69.7375 20.0775C68.8437 20.0775 68.2735 20.505 68.2735 21.1528C68.2735 21.8261 69.1544 22.0466 70.1777 22.3056C71.6028 22.6688 73.2997 23.1087 73.2997 24.9871C73.2997 26.4248 72.2893 27.6558 69.9575 27.6558C68.3645 27.6558 67.2113 27.0987 66.4473 26.2827L67.2892 25.1169Z" fill="white"/>
<path fill-rule="evenodd" clip-rule="evenodd" d="M76.9541 20.1944H74.3374V18.8604H81.0865V20.1944H78.4696V27.5005H76.9541V20.1944Z" fill="white"/>
<path fill-rule="evenodd" clip-rule="evenodd" d="M86.2829 20.1944H84.2101V22.9403H86.2829C87.1377 22.9403 87.7596 22.397 87.7596 21.5675C87.7596 20.7385 87.1377 20.1944 86.2829 20.1944ZM85.7127 24.2751H84.2101V27.5005H82.6943V18.8604H86.4902C88.2001 18.8604 89.3142 19.9742 89.3142 21.5675C89.3142 23.1088 88.3035 23.938 87.2672 24.1066L89.3788 27.5005H87.6301L85.7127 24.2751Z" fill="white"/>
<path fill-rule="evenodd" clip-rule="evenodd" d="M92.9688 24.5078H96.2074L94.588 20.1425L92.9688 24.5078ZM96.635 25.8421H92.5413L91.9067 27.5003H90.2485L93.6425 18.8601H95.5335L98.9277 27.5003H97.2695L96.635 25.8421Z" fill="white"/>
<path fill-rule="evenodd" clip-rule="evenodd" d="M101.416 20.1944H98.7993V18.8604H105.548V20.1944H102.932V27.5005H101.416V20.1944Z" fill="white"/>
<path fill-rule="evenodd" clip-rule="evenodd" d="M107.157 18.8604H113.077V20.1944H108.672V22.4355H112.986V23.7695H108.672V26.1662H113.077V27.5005H107.157V18.8604Z" fill="white"/>
<path fill-rule="evenodd" clip-rule="evenodd" d="M119.102 18.7173C120.786 18.7173 121.887 19.5204 122.586 20.5182L121.343 21.2179C120.89 20.5701 120.073 20.0645 119.102 20.0645C117.392 20.0645 116.122 21.3732 116.122 23.1871C116.122 25.0003 117.392 26.3214 119.102 26.3214C119.983 26.3214 120.76 25.9071 121.149 25.5444V24.1972H118.571V22.8629H122.664V26.1012C121.809 27.047 120.604 27.6689 119.102 27.6689C116.602 27.6689 114.568 25.8939 114.568 23.1871C114.568 20.4797 116.602 18.7173 119.102 18.7173Z" fill="white"/>
<mask id="mask0_2713_5225" style="mask-type:alpha" maskUnits="userSpaceOnUse" x="25" y="18" width="116" height="35">
<path fill-rule="evenodd" clip-rule="evenodd" d="M25 52.9241H140.467V18H25V52.9241Z" fill="white"/>
</mask>
<g mask="url(#mask0_2713_5225)">
<path fill-rule="evenodd" clip-rule="evenodd" d="M124.57 27.5003H126.086V18.8601H124.57V27.5003Z" fill="white"/>
<path fill-rule="evenodd" clip-rule="evenodd" d="M127.861 23.1868C127.861 20.5314 129.843 18.717 132.33 18.717C134.144 18.717 135.219 19.6241 135.867 20.6603L134.571 21.3213C134.157 20.6087 133.328 20.0643 132.33 20.0643C130.685 20.0643 129.415 21.3733 129.415 23.1868C129.415 25.0001 130.685 26.3091 132.33 26.3091C133.328 26.3091 134.157 25.7771 134.571 25.052L135.867 25.713C135.206 26.7487 134.144 27.6558 132.33 27.6558C129.843 27.6558 127.861 25.842 127.861 23.1868Z" fill="white"/>
<path fill-rule="evenodd" clip-rule="evenodd" d="M67.0039 31.1357H72.924V32.47H68.5197V34.7109H72.8333V36.0452H68.5197V38.4419H72.924V39.7759H67.0039V31.1357Z" fill="white"/>
<path fill-rule="evenodd" clip-rule="evenodd" d="M78.0164 38.4419C79.8946 38.4419 80.9828 37.0944 80.9828 35.4626C80.9828 33.7914 79.9466 32.47 78.0164 32.47H76.3195V38.4419H78.0164ZM74.8037 31.1357H78.0164C80.7106 31.1357 82.5374 32.9232 82.5374 35.4625C82.5374 38.0011 80.7106 39.7759 78.0164 39.7759H74.8037V31.1357Z" fill="white"/>
<path fill-rule="evenodd" clip-rule="evenodd" d="M84.3271 31.1357H85.8556V36.3174C85.8556 37.6904 86.6199 38.5845 88.0708 38.5845C89.5088 38.5845 90.2728 37.6904 90.2728 36.3174V31.1357H91.8015V36.3561C91.8015 38.5065 90.5709 39.9312 88.0708 39.9312C85.5578 39.9312 84.3271 38.4936 84.3271 36.3691V31.1357Z" fill="white"/>
<path fill-rule="evenodd" clip-rule="evenodd" d="M93.5776 35.4624C93.5776 32.8073 95.5597 30.9929 98.0469 30.9929C99.8604 30.9929 100.936 31.8997 101.583 32.9362L100.288 33.5972C99.8736 32.8845 99.0444 32.3402 98.0469 32.3402C96.4019 32.3402 95.1322 33.6492 95.1322 35.4624C95.1322 37.276 96.4019 38.5847 98.0469 38.5847C99.0444 38.5847 99.8736 38.053 100.288 37.3279L101.583 37.9886C100.923 39.0246 99.8604 39.9314 98.0469 39.9314C95.5597 39.9314 93.5776 38.1178 93.5776 35.4624Z" fill="white"/>
<path fill-rule="evenodd" clip-rule="evenodd" d="M104.876 36.7837H108.115L106.495 32.4184L104.876 36.7837ZM108.542 38.118H104.449L103.814 39.7759H102.156L105.55 31.1357H107.441L110.835 39.7759H109.177L108.542 38.118Z" fill="white"/>
<path fill-rule="evenodd" clip-rule="evenodd" d="M113.323 32.47H110.707V31.1357H117.456V32.47H114.839V39.7759H113.323V32.47Z" fill="white"/>
<path fill-rule="evenodd" clip-rule="evenodd" d="M119.064 39.7759H120.579V31.1357H119.064V39.7759Z" fill="white"/>
<path fill-rule="evenodd" clip-rule="evenodd" d="M126.772 32.3402C125.023 32.3402 123.909 33.6745 123.909 35.4624C123.909 37.2372 125.023 38.5844 126.772 38.5844C128.508 38.5844 129.635 37.2372 129.635 35.4624C129.635 33.6745 128.508 32.3402 126.772 32.3402ZM126.772 30.9929C129.363 30.9929 131.189 32.8843 131.189 35.4624C131.189 38.0403 129.363 39.9311 126.772 39.9311C124.181 39.9311 122.354 38.0403 122.354 35.4624C122.354 32.8843 124.181 30.9929 126.772 30.9929Z" fill="white"/>
<path fill-rule="evenodd" clip-rule="evenodd" d="M134.495 33.4805V39.7759H132.979V31.1357H134.534L138.951 37.2629V31.1357H140.467V39.7759H139.003L134.495 33.4805Z" fill="white"/>
<path fill-rule="evenodd" clip-rule="evenodd" d="M67.0039 52.0519H68.5197V43.4109H67.0039V52.0519Z" fill="white"/>
<path fill-rule="evenodd" clip-rule="evenodd" d="M72.1991 45.7554V52.0516H70.6836V43.4106H72.2381L76.6554 49.5386V43.4106H78.1709V52.0516H76.7074L72.1991 45.7554Z" fill="white"/>
<path fill-rule="evenodd" clip-rule="evenodd" d="M79.9473 47.7373C79.9473 45.0821 81.9293 43.2683 84.4168 43.2683C86.2303 43.2683 87.3056 44.1753 87.9528 45.2119L86.6576 45.872C86.243 45.1602 85.414 44.6158 84.4168 44.6158C82.7712 44.6158 81.5018 45.924 81.5018 47.7373C81.5018 49.5508 82.7712 50.8595 84.4168 50.8595C85.414 50.8595 86.243 50.3286 86.6576 49.6033L87.9528 50.2637C87.2924 51.3 86.2303 52.207 84.4168 52.207C81.9293 52.207 79.9473 50.3932 79.9473 47.7373Z" fill="white"/>
</g>
</svg>
