<svg width="165" height="70" viewBox="0 0 165 70" fill="none" xmlns="http://www.w3.org/2000/svg">
<path d="M62.7554 48.1339C62.7554 49.4229 62.0845 50.0744 60.995 50.0744C59.9056 50.0744 59.2264 49.3841 59.2264 48.084V44.106H57.9956V48.1339C57.9956 50.1631 59.1544 51.2137 60.9756 51.2137C62.7969 51.2137 63.9834 50.1631 63.9834 48.0756V44.106H62.7554V48.1339Z" fill="white"/>
<path d="M73.2646 48.9433L69.5166 44.106H68.3745V51.1028H69.5859V46.1241L73.4447 51.1028H74.4732V44.106H73.2646V48.9433Z" fill="white"/>
<path d="M80.4722 44.106H79.2441V51.1028H80.4722V44.106Z" fill="white"/>
<path d="M88.112 49.4839L86.0024 44.106H84.644L87.5409 51.1527H88.6415L91.5411 44.106H90.2105L88.112 49.4839Z" fill="white"/>
<path d="M96.8692 48.1339H100.379V47.025H96.8692V45.2065H100.828V44.106H95.6411V51.1028H100.878V50.0051H96.8692V48.1339Z" fill="white"/>
<path d="M110.957 46.3348V46.3153C110.957 45.7055 110.747 45.1871 110.378 44.8045C109.929 44.3638 109.239 44.106 108.36 44.106H105.241V51.1028H106.472V48.6633H108.011L109.729 51.1028H111.19L109.3 48.4527C110.27 48.1727 110.96 47.4824 110.96 46.332L110.957 46.3348ZM106.469 47.5739V45.2259H108.257C109.167 45.2259 109.707 45.6362 109.707 46.3846V46.4041C109.707 47.1137 109.147 47.5739 108.268 47.5739H106.469Z" fill="white"/>
<path d="M118.076 47.0443C116.726 46.7255 116.407 46.4843 116.407 45.9437V45.9243C116.407 45.4642 116.826 45.0955 117.547 45.0955C118.187 45.0955 118.816 45.345 119.446 45.8162L120.105 44.8876C119.396 44.3165 118.586 44.0088 117.566 44.0088C116.177 44.0088 115.176 44.8377 115.176 46.038V46.0574C115.176 47.3464 116.016 47.7872 117.505 48.1476C118.805 48.447 119.085 48.7186 119.085 49.2176V49.237C119.085 49.7554 118.606 50.1158 117.846 50.1158C116.987 50.1158 116.308 49.7859 115.637 49.2065L114.896 50.0853C115.736 50.8338 116.745 51.2052 117.816 51.2052C119.285 51.2052 120.313 50.4263 120.313 49.1151V49.0956C120.313 47.9369 119.554 47.4074 118.073 47.047L118.076 47.0443Z" fill="white"/>
<path d="M125.963 44.106H124.735V51.1028H125.963V44.106Z" fill="white"/>
<path d="M130.215 45.2453H132.444V51.1028H133.672V45.2453H135.904V44.106H130.215V45.2453Z" fill="white"/>
<path d="M142.77 47.1941L140.821 44.106H139.363L142.141 48.3445V51.1028H143.38V48.3141L146.161 44.106H144.75L142.77 47.1941Z" fill="white"/>
<path d="M2.07633 18.9738C0.737387 20.2489 0 21.9427 0 23.7446C0 26.8133 2.62244 29.3083 5.84365 29.3083C8.51598 29.3083 10.6893 27.2375 10.6893 24.6927C10.6893 22.5637 8.87082 20.8283 6.63648 20.8283C5.72445 20.8283 5.43615 21.4354 5.5304 21.8401C5.6302 22.2754 6.16245 22.5082 6.63648 22.5082C7.8978 22.5082 8.92626 23.4896 8.92626 24.6927C8.92626 26.3116 7.54297 27.6311 5.84365 27.6311C3.59545 27.6311 1.76585 25.8847 1.76585 23.7446C1.76585 22.3918 2.32027 21.1222 3.32378 20.163C4.32729 19.2038 5.66346 18.6965 7.08002 18.6965L27.0255 18.7076V29.3055C27.0255 38.1846 22.3101 46.2959 14.4095 51.0251C6.86379 46.5121 2.45888 38.9996 2.05415 30.5945C1.94604 29.7407 0.615413 29.6465 0.357605 30.4698C0.740159 40.0724 5.11181 47.0665 13.5696 52.5443L14.4068 53.0405L15.2467 52.5443C23.7461 47.5101 28.8191 38.825 28.8191 29.3083V17H7.08002C5.18943 17 3.41249 17.6986 2.07633 18.9738Z" fill="white"/>
<path d="M12.5301 24.482C12.5301 24.482 12.5246 47.5406 12.519 48.3584C12.519 48.3723 12.5218 48.3861 12.5301 48.3917C12.5662 48.4333 12.7741 48.5968 12.9155 48.7049C13.5669 49.2011 14.1352 49.5532 14.271 49.628C14.2877 49.6364 14.296 49.628 14.296 49.6003V24.482C14.296 24.0191 13.8996 23.6421 13.4144 23.6421C12.9293 23.6421 12.5329 24.0191 12.5329 24.482H12.5301Z" fill="white"/>
<path d="M16.0396 24.4654V48.569C16.0396 48.569 16.0396 48.5829 16.0479 48.5884C16.0562 48.5995 16.0728 48.6078 16.095 48.594C16.1421 48.5635 17.445 47.4713 17.5476 47.3853C17.6474 47.2994 17.7361 47.2301 17.7915 47.1608C17.8054 47.1497 17.8054 47.1248 17.8054 47.1248V24.4654C17.8054 24.0024 17.409 23.6282 16.9266 23.6282C16.4443 23.6282 16.0423 24.0052 16.0423 24.4654H16.0396Z" fill="white"/>
<path d="M19.5547 24.4847V45.3062C19.5547 45.3062 19.5547 45.3201 19.5602 45.3312C19.5685 45.3422 19.5824 45.3478 19.6074 45.3284C19.7321 45.2147 20.0315 44.8765 20.1257 44.7767C20.2505 44.6409 21.1071 43.6346 21.29 43.4461C21.3205 43.4156 21.3205 43.3685 21.3205 43.3685V24.4847C21.3205 24.019 20.9269 23.6448 20.439 23.6448C19.9511 23.6448 19.5575 24.0218 19.5575 24.4847H19.5547Z" fill="white"/>
<path d="M23.0693 24.4847V40.2609C23.0693 40.2609 23.086 40.333 23.122 40.2776C23.3105 39.9837 23.5739 39.457 24.0146 38.4951C24.253 37.9739 24.7797 36.6156 24.8185 36.5269C24.8324 36.4964 24.8324 36.452 24.8324 36.452V24.4847C24.8324 24.019 24.436 23.6448 23.9509 23.6448C23.4658 23.6448 23.0693 24.0218 23.0693 24.4847Z" fill="white"/>
<path d="M25.9167 22.037C25.9167 22.037 25.9112 20.5206 25.9112 20.4735C25.9112 20.4153 25.8585 20.4153 25.8585 20.4153H13.4006C12.9127 20.4153 12.519 20.7923 12.519 21.2552C12.519 21.7182 12.9127 22.0952 13.4006 22.0952H25.8641C25.9112 22.0952 25.9167 22.037 25.9167 22.037Z" fill="white"/>
<path d="M26.1493 49.3757L25.7113 48.0894H25.4175V49.6086H25.6143V48.7132C25.6143 48.6771 25.6143 48.6217 25.6115 48.5441C25.6115 48.4665 25.6088 48.411 25.6088 48.3722V48.3251L26.0468 49.6058H26.2519L26.6843 48.3251C26.6843 48.4055 26.6843 48.4831 26.6843 48.5552C26.6843 48.6272 26.6843 48.6799 26.6843 48.7104V49.6058H26.8812V48.0867H26.5901L26.1549 49.3729L26.1493 49.3757Z" fill="white"/>
<path d="M25.0156 48.8739C24.9602 48.8351 24.8798 48.8019 24.7772 48.7797L24.5637 48.7298C24.4196 48.6965 24.3281 48.6688 24.2893 48.6466C24.2283 48.6134 24.1951 48.5579 24.1951 48.4831C24.1951 48.4165 24.2228 48.3556 24.2754 48.3057C24.3281 48.2558 24.4168 48.228 24.536 48.228C24.6857 48.228 24.7938 48.2669 24.8548 48.3472C24.8881 48.3888 24.9103 48.4526 24.9213 48.533H25.1154C25.1154 48.3639 25.06 48.2419 24.9491 48.1643C24.8382 48.0867 24.7024 48.0479 24.5443 48.0479C24.3697 48.0479 24.2366 48.0922 24.1424 48.1781C24.0481 48.2669 24.001 48.3777 24.001 48.5136C24.001 48.6411 24.0481 48.7353 24.1452 48.7991C24.2006 48.8351 24.2976 48.8684 24.4307 48.8989L24.6386 48.946C24.7495 48.971 24.8326 49.0015 24.8853 49.0347C24.9352 49.0708 24.9629 49.129 24.9629 49.2121C24.9629 49.323 24.9019 49.3979 24.78 49.4422C24.7162 49.4644 24.6469 49.4755 24.5693 49.4755C24.3974 49.4755 24.2754 49.4256 24.2089 49.323C24.1729 49.2704 24.1535 49.1983 24.1479 49.1123H23.9566C23.9539 49.2759 24.0065 49.4062 24.1147 49.5032C24.22 49.6002 24.3697 49.6474 24.5582 49.6474C24.7218 49.6474 24.8631 49.6113 24.9851 49.5393C25.1071 49.4672 25.1681 49.3452 25.1681 49.1789C25.1681 49.043 25.1209 48.9405 25.0239 48.8684L25.0156 48.8739Z" fill="white"/>
<path d="M48.4514 25.2527C45.2413 24.4294 44.4457 24.033 44.4457 22.8104V22.7578C44.4457 21.8568 45.269 21.1389 46.8325 21.1389C48.396 21.1389 50.0177 21.8291 51.6616 22.9685L53.785 19.8914C51.9 18.3778 49.5936 17.5295 46.8852 17.5295C43.0901 17.5295 40.3845 19.7583 40.3845 23.1292V23.1819C40.3845 26.8716 42.7991 27.9056 46.5414 28.8592C49.6462 29.6548 50.2838 30.1871 50.2838 31.2211V31.2738C50.2838 32.3604 49.2748 33.0258 47.6032 33.0258C45.4797 33.0258 43.7277 32.1498 42.0561 30.7692L39.6416 33.6606C41.8704 35.651 44.7091 36.6323 47.5228 36.6323C51.5285 36.6323 54.3422 34.5615 54.3422 30.8746V30.8219C54.3422 27.5841 52.2188 26.2313 48.4514 25.2499V25.2527Z" fill="white"/>
<path d="M71.6624 17.7957H56.2715V21.563H61.9239V36.3717H66.01V21.563H71.6624V17.7957Z" fill="white"/>
<path d="M91.0783 36.3717L86.5403 29.738C88.9022 28.862 90.5211 26.9797 90.5211 23.9803V23.9276C90.5211 22.1756 89.9639 20.7175 88.9299 19.6807C87.7102 18.461 85.8778 17.7957 83.5159 17.7957H75.0249V36.3717H79.111V30.4283H82.3211L86.3019 36.3717H91.0783ZM83.2498 26.8189H79.111V21.4854H83.1722C85.1626 21.4854 86.3823 22.3891 86.3823 24.1383V24.191C86.3823 25.7572 85.2402 26.8189 83.2498 26.8189Z" fill="white"/>
<path d="M100.875 17.6626L92.9136 36.3689H97.0801L98.7794 32.2024H106.633L108.332 36.3689H112.604L104.645 17.6626H100.878H100.875ZM100.238 28.5959L102.705 22.572L105.172 28.5959H100.238Z" fill="white"/>
<path d="M119.584 25.2527L115.151 17.7957H110.375L117.513 29.0477V36.3717H121.599V28.9673L128.738 17.7957H124.094L119.584 25.2527Z" fill="white"/>
<path d="M145.285 32.7347H135.202V28.8343H143.959V25.2H135.202V21.4327H145.151V17.7957H131.141V36.3717H145.285V32.7347Z" fill="white"/>
<path d="M160.462 29.738C162.824 28.862 164.443 26.9797 164.443 23.9803V23.9276C164.443 22.1756 163.886 20.7175 162.852 19.6807C161.632 18.461 159.8 17.7957 157.438 17.7957H148.947V36.3717H153.033V30.4283H156.243L160.224 36.3717H165L160.462 29.738ZM160.154 24.191C160.154 25.7572 159.012 26.8189 157.025 26.8189H152.886V21.4854H156.947C158.938 21.4854 160.157 22.3891 160.157 24.1383V24.191H160.154Z" fill="white"/>
</svg>
