<svg width="17" height="19" viewBox="0 0 17 19" fill="none" xmlns="http://www.w3.org/2000/svg">
<g id="youtube copy">
<path id="youtube" fill-rule="evenodd" clip-rule="evenodd" d="M14.9041 15.2518L14.0537 15.2562C14.0534 15.2877 14.0522 15.3246 14.0518 15.3643V15.8116C14.0518 16.0507 13.8419 16.2456 13.5871 16.2456H13.4205C13.1651 16.2456 12.9555 16.0507 12.9555 15.8116V15.762V15.2702V14.6356H14.9025V13.9451C14.9025 13.4405 14.8886 12.936 14.8443 12.6476C14.705 11.7351 13.3455 11.5902 12.6588 12.0572C12.4432 12.2031 12.2786 12.3983 12.183 12.6606C12.0864 12.9232 12.0383 13.2819 12.0383 13.7371V15.2556C12.0386 17.7793 15.2922 17.4226 14.9041 15.2518ZM11.3551 15.5891L11.3526 13.0431C11.3519 12.0728 10.5814 11.4916 9.53565 12.2769L9.5404 10.3839L8.40763 10.3855L8.40225 16.9193L9.33366 16.9066L9.41851 16.4996C10.6086 17.5285 11.357 16.8236 11.3551 15.5891ZM7.72759 16.9603L7.72727 12.0861H6.59356V15.1453C6.59356 15.5878 6.62205 15.8091 6.59166 15.887C6.49953 16.1245 6.08511 16.3763 5.92333 15.9127C5.8961 15.8317 5.92017 15.5869 5.91985 15.1662L5.9151 12.0861H4.7874L4.79088 15.1179C4.79183 15.5827 4.7798 15.929 4.795 16.087C4.82254 16.3648 4.81273 16.6891 5.08658 16.8742C5.59661 17.2204 6.57456 16.8227 6.81929 16.3276L6.81707 16.9594L7.72759 16.9603ZM3.6502 16.9616L3.64925 11.2328L5.00965 11.2331V10.3842L1.38372 10.3792V11.2137L2.51553 11.2166V16.9616H3.6502ZM16.5586 10.9324V16.3712C16.5586 17.6757 15.3581 18.743 13.8907 18.743H2.91824C1.4502 18.743 0.25 17.6757 0.25 16.3712V10.9324C0.25 9.62789 1.4502 8.56028 2.91824 8.56028H13.8907C15.3581 8.56028 16.5586 9.62789 16.5586 10.9324ZM10.0162 12.5315C9.74397 12.5315 9.52108 12.7042 9.52108 12.9153V15.7741C9.52108 15.9849 9.74397 16.1572 10.0162 16.1572C10.2898 16.1572 10.513 15.9849 10.513 15.7741V12.9153C10.513 12.7039 10.2898 12.5315 10.0162 12.5315ZM4.2036 7.52223H5.39621L5.39747 3.63775L6.80662 0.309973H5.50226L4.75321 2.78157L3.99339 0.302979H2.70264L4.2017 3.63934L4.2036 7.52223ZM7.70195 6.16085C7.70195 6.44763 7.92863 6.68194 8.20438 6.68194C8.48076 6.68194 8.70649 6.44763 8.70649 6.16085V3.46448C8.70649 3.17803 8.48076 2.94403 8.20438 2.94403C7.92863 2.94403 7.70195 3.17803 7.70195 3.46448V6.16085ZM6.71196 4.14899C6.71196 3.66255 6.75502 3.28294 6.8405 3.00921C6.92661 2.73642 7.08111 2.51737 7.30526 2.35204C7.52845 2.18576 7.81434 2.10247 8.16195 2.10247C8.45448 2.10247 8.70491 2.15683 8.91418 2.2627C9.12439 2.36921 9.28681 2.50751 9.3992 2.67824C9.5138 2.84929 9.59168 3.02542 9.63316 3.20569C9.67558 3.38818 9.69648 3.66351 9.69648 4.03485V5.31579C9.69648 5.7857 9.67653 6.13129 9.63759 6.35066C9.59897 6.57067 9.51633 6.77478 9.38843 6.96617C9.26211 7.15566 9.09938 7.29714 8.90183 7.38743C8.70238 7.47868 8.4738 7.5235 8.21609 7.5235C7.92799 7.5235 7.68517 7.48599 7.48508 7.40746C7.28436 7.32989 7.12955 7.21225 7.01906 7.05646C6.9073 6.90036 6.82878 6.71024 6.78161 6.48832C6.73381 6.26704 6.71133 5.93385 6.71133 5.4897L6.71196 4.14899ZM14.0572 13.2033C14.0572 12.9423 13.829 12.7287 13.55 12.7287H13.4817C13.2034 12.7287 12.9757 12.9423 12.9757 13.2033L12.9707 13.7912H14.0449L14.0572 13.2033ZM10.4341 6.58752C10.4205 6.44031 10.412 6.15004 10.412 5.71511V2.29863H11.4507V6.24065C11.4507 6.4543 11.6378 6.62917 11.8645 6.62917C12.0928 6.62917 12.2792 6.4543 12.2792 6.24065V2.29863H13.2743V7.3639H12.0101L12.0317 6.94455C11.9452 7.11465 11.8395 7.24245 11.7138 7.32798C11.5875 7.41382 11.4428 7.45547 11.2791 7.45547C11.0926 7.45547 10.9369 7.41477 10.8153 7.33402C10.6918 7.25199 10.601 7.14358 10.5424 7.00941C10.4842 6.87365 10.4484 6.73345 10.4341 6.58752Z" fill="white"/>
</g>
</svg>
